<svg width="96" height="96" viewBox="0 0 96 96" fill="none" xmlns="http://www.w3.org/2000/svg">
<g clip-path="url(#clip0_2140_736)">
<circle cx="48" cy="48" r="40" stroke="black" stroke-width="4" stroke-linecap="round"/>
<path d="M21.0165 59.0002C21.4065 51.2902 22.6965 46.3702 26.9265 40.4902H16.9365V36.8002H31.6965V39.4702C26.5365 45.7702 25.8465 50.3002 25.4865 59.0002H21.0165Z" fill="black"/>
<path d="M34.3925 59.0002V56.4502C40.4225 51.0502 43.9925 46.8802 43.9925 43.4602C43.9925 41.2102 42.7625 39.8602 40.6625 39.8602C39.0425 39.8602 37.6925 40.9102 36.5825 42.1402L34.1825 39.7402C36.2225 37.5802 38.2025 36.3802 41.2325 36.3802C45.4325 36.3802 48.2225 39.0802 48.2225 43.2202C48.2225 47.2402 44.8925 51.5602 40.8425 55.5202C41.9525 55.4002 43.4225 55.2802 44.4425 55.2802H49.2725V59.0002H34.3925Z" fill="black"/>
<path d="M59.6186 59.4202C55.0886 59.4202 52.0886 55.4602 52.0886 47.8102C52.0886 40.1302 55.0886 36.3802 59.6186 36.3802C64.1186 36.3802 67.1186 40.1602 67.1186 47.8102C67.1186 55.4602 64.1186 59.4202 59.6186 59.4202ZM59.6186 55.9702C61.5086 55.9702 62.9486 54.0502 62.9486 47.8102C62.9486 41.6002 61.5086 39.8002 59.6186 39.8002C57.6986 39.8002 56.2586 41.6002 56.2586 47.8102C56.2586 54.0502 57.6986 55.9702 59.6186 55.9702Z" fill="black"/>
<path d="M74.4946 45.1702C71.9146 45.1702 69.7846 43.2202 69.7846 40.4302C69.7846 37.6402 71.9146 35.6602 74.4946 35.6602C77.1346 35.6602 79.2346 37.6402 79.2346 40.4302C79.2346 43.2202 77.1346 45.1702 74.4946 45.1702ZM74.4946 42.9802C75.9046 42.9802 76.8646 41.9302 76.8646 40.4302C76.8646 38.9002 75.9046 37.8502 74.4946 37.8502C73.1146 37.8502 72.1546 38.9002 72.1546 40.4302C72.1546 41.9302 73.1146 42.9802 74.4946 42.9802Z" fill="black"/>
</g>
<defs>
<clipPath id="clip0_2140_736">
<rect width="96" height="96" fill="white"/>
</clipPath>
</defs>
</svg>
