<svg width="96" height="96" viewBox="0 0 96 96" fill="none" xmlns="http://www.w3.org/2000/svg">
<g clip-path="url(#clip0_1326_1064)">
<path d="M30.1302 32.52C31.7202 32.52 33.3302 32.05 34.7102 31.1C38.0202 28.82 39.1402 24.03 38.1102 21C36.5502 16.42 34.0202 12.66 31.3402 8.68L30.2202 7L29.6602 7.79C27.0702 11.45 24.3902 15.4 22.6102 19.95C21.1002 23.8 21.8202 27.38 24.6802 30.29C26.1202 31.76 28.1202 32.52 30.1402 32.52H30.1302ZM27.2702 27.68C25.6502 26.35 24.9902 24.02 25.6702 22.02C26.7402 18.86 28.4602 16.09 30.1802 13.43C31.9602 16.23 33.6402 18.89 34.6602 21.99C35.3402 24.04 34.7002 26.37 33.1102 27.67C31.3002 29.14 29.0602 29.15 27.2702 27.68Z" fill="#030303"/>
<path d="M47.7201 46.2099C49.3101 46.2099 50.9201 45.7499 52.3001 44.7899C55.6101 42.5099 56.7301 37.7199 55.7001 34.6899C54.1401 30.1099 51.6101 26.3499 48.9301 22.3599L47.8101 20.6899L47.2501 21.4799C44.6601 25.1399 41.9801 29.0899 40.2001 33.6399C38.6901 37.4899 39.4101 41.0699 42.2701 43.9799C43.7101 45.4499 45.7101 46.2099 47.7301 46.2099H47.7201ZM44.8601 41.3699C43.2401 40.0399 42.5801 37.7099 43.2601 35.7099C44.3301 32.5499 46.0501 29.7799 47.7701 27.1199C49.5501 29.9199 51.2301 32.5799 52.2501 35.6799C52.9301 37.7299 52.2901 40.0599 50.7001 41.3599C48.8901 42.8399 46.6501 42.8399 44.8601 41.3699Z" fill="#030303"/>
<path d="M65.3202 32.52C66.9102 32.52 68.5202 32.05 69.9002 31.1C73.2102 28.82 74.3302 24.03 73.3002 21C71.7402 16.42 69.2102 12.66 66.5302 8.67L65.4102 7L64.8502 7.79C62.2602 11.45 59.5802 15.4 57.8002 19.95C56.2902 23.8 57.0102 27.38 59.8702 30.29C61.3102 31.76 63.3102 32.52 65.3302 32.52H65.3202ZM62.4602 27.68C60.8402 26.35 60.1802 24.02 60.8602 22.02C61.9302 18.86 63.6502 16.09 65.3702 13.43C67.1502 16.23 68.8302 18.89 69.8502 21.99C70.5302 24.04 69.8902 26.37 68.3002 27.67C66.4902 29.14 64.2502 29.15 62.4602 27.68Z" fill="#030303"/>
<path d="M85.84 81.4502H11.66C10.19 81.4502 9 82.6402 9 84.1102C9 85.5802 10.19 86.7702 11.66 86.7702H19.19L21.72 89.3002C21.98 89.5602 22.32 89.6902 22.66 89.6902C23 89.6902 23.34 89.5602 23.6 89.3002C24.12 88.7802 24.12 87.9402 23.6 87.4202L22.95 86.7702H26.11L28.64 89.3002C28.9 89.5602 29.24 89.6902 29.58 89.6902C29.92 89.6902 30.26 89.5602 30.52 89.3002C31.04 88.7802 31.04 87.9402 30.52 87.4202L29.87 86.7702H33.03L35.56 89.3002C35.82 89.5602 36.16 89.6902 36.5 89.6902C36.84 89.6902 37.18 89.5602 37.44 89.3002C37.96 88.7802 37.96 87.9402 37.44 87.4202L36.79 86.7702H39.95L42.48 89.3002C42.74 89.5602 43.08 89.6902 43.42 89.6902C43.76 89.6902 44.1 89.5602 44.36 89.3002C44.88 88.7802 44.88 87.9402 44.36 87.4202L43.71 86.7702H46.87L49.4 89.3002C49.66 89.5602 50 89.6902 50.34 89.6902C50.68 89.6902 51.02 89.5602 51.28 89.3002C51.8 88.7802 51.8 87.9402 51.28 87.4202L50.63 86.7702H53.79L56.32 89.3002C56.58 89.5602 56.92 89.6902 57.26 89.6902C57.6 89.6902 57.94 89.5602 58.2 89.3002C58.72 88.7802 58.72 87.9402 58.2 87.4202L57.55 86.7702H60.71L63.24 89.3002C63.5 89.5602 63.84 89.6902 64.18 89.6902C64.52 89.6902 64.86 89.5602 65.12 89.3002C65.64 88.7802 65.64 87.9402 65.12 87.4202L64.47 86.7702H67.63L70.16 89.3002C70.42 89.5602 70.76 89.6902 71.1 89.6902C71.44 89.6902 71.78 89.5602 72.04 89.3002C72.56 88.7802 72.56 87.9402 72.04 87.4202L71.39 86.7702H74.55L77.08 89.3002C77.34 89.5602 77.68 89.6902 78.02 89.6902C78.36 89.6902 78.7 89.5602 78.96 89.3002C79.48 88.7802 79.48 87.9402 78.96 87.4202L78.31 86.7702H85.8C87.27 86.7702 88.46 85.5802 88.46 84.1102C88.46 82.6402 87.27 81.4502 85.8 81.4502H85.84Z" fill="#030303"/>
<path d="M35.1302 73.6402C35.5502 74.0102 36.0702 74.1902 36.5902 74.1902C37.0202 74.1902 37.4602 74.0602 37.8402 73.8102L46.4702 67.9402L52.9702 73.6402C53.3902 74.0102 53.9102 74.1902 54.4302 74.1902C54.8602 74.1902 55.3002 74.0602 55.6802 73.8102L76.5402 59.6302L78.4502 67.1302C79.9202 61.5302 83.7202 54.6102 87.2202 49.6802C81.4802 51.1002 73.8702 52.0602 68.1602 51.4602C68.5702 50.8502 68.9702 50.2502 69.3802 49.6802C63.5102 51.1302 55.6702 52.1202 49.9302 51.4202L56.2002 55.9602L46.8102 62.3402L33.1302 50.3402C32.2102 49.5302 30.8102 49.6202 30.0002 50.5402C29.1902 51.4602 29.2802 52.8602 30.2002 53.6702L43.0202 64.9102L36.7602 69.1702L15.2902 50.3402C14.3702 49.5302 12.9702 49.6202 12.1602 50.5402C11.3502 51.4602 11.4402 52.8602 12.3602 53.6702L35.1202 73.6402H35.1302ZM74.0402 55.9602L61.4302 64.5402C62.9602 60.2502 65.4902 55.5302 68.0502 51.6302L74.0402 55.9602ZM58.6902 59.6302L60.1602 65.3902L54.6002 69.1702L50.2602 65.3602L58.7002 59.6202L58.6902 59.6302Z" fill="#030303"/>
</g>
<defs>
<clipPath id="clip0_1326_1064">
<rect width="79.5" height="82.7" fill="white" transform="translate(9 7)"/>
</clipPath>
</defs>
</svg>
