<svg width="96" height="96" viewBox="0 0 96 96" fill="none" xmlns="http://www.w3.org/2000/svg">
<g clip-path="url(#clip0_1326_585)">
<path d="M16.8498 85.3203C15.8298 84.8403 14.7198 84.4903 13.7998 83.8603C11.7398 82.4403 10.6398 80.3703 10.5498 77.8903C10.4398 75.2103 10.5298 72.5303 10.5298 69.7603C11.8498 69.7603 13.1198 69.7603 14.5298 69.7603C14.5498 70.1003 14.5798 70.4903 14.5898 70.8703C14.5998 73.0803 14.5798 75.2803 14.5998 77.4903C14.6198 79.7903 16.1798 81.3403 18.4998 81.3603C20.9998 81.3803 23.4898 81.3603 26.1298 81.3603C26.1298 82.7203 26.1298 84.0203 26.1298 85.3203C23.0298 85.3203 19.9398 85.3203 16.8498 85.3203Z" fill="#030303" stroke="#030303" stroke-width="1.4"/>
<path d="M69.8296 85.3201C69.8296 84.0401 69.8296 82.7701 69.8296 81.3601C72.2996 81.3601 74.6396 81.3601 76.9796 81.3601C80.1496 81.3601 81.5396 79.9701 81.5396 76.8001C81.5396 74.4901 81.5396 72.1701 81.5396 69.6401C82.8896 69.6401 84.1896 69.6401 85.4996 69.6401C85.4996 72.8001 85.4996 75.9701 85.4996 79.1301C84.7996 80.3801 84.3196 81.8701 83.3296 82.8301C82.2296 83.9001 80.6696 84.5001 79.3196 85.3101C76.1596 85.3201 72.9896 85.3201 69.8296 85.3201Z" fill="#030303" stroke="#030303" stroke-width="1.4"/>
<path d="M52.9099 55.7502C52.8198 56.0004 52.2399 56.6402 51.8599 56.6402C51.3599 56.6402 50.6299 56.3102 50.3899 55.8902C49.7399 54.7502 49.2699 53.5102 48.7899 52.2802C48.5499 51.6802 48.2199 51.4602 47.5599 51.4702C45.3899 51.5102 43.2299 51.5002 41.0599 51.4702C40.4599 51.4602 40.1399 51.6602 39.9099 52.2202C39.3999 53.4402 38.8199 54.6202 38.2599 55.8202C37.8999 56.5902 37.3299 57.0002 36.4999 56.6102C35.6599 56.2202 35.6099 55.4902 35.9499 54.7402C38.3899 49.4102 40.8299 44.0802 43.3299 38.7802C43.5199 38.3702 44.1399 37.9302 44.5499 37.9302C44.9699 37.9402 45.5799 38.4002 45.7599 38.8102C48.0999 44.1502 50.3899 49.5102 52.6799 54.8602C52.7599 55.0702 53 55.5 52.9099 55.7502ZM41.4799 48.8502C43.4799 48.8502 45.3299 48.8502 47.2999 48.8502C46.3799 46.6902 45.4799 44.6102 44.4999 42.3102C43.4399 44.6002 42.4899 46.6702 41.4799 48.8502Z" fill="#030303" stroke="#030303"/>
<path d="M10.6998 26.2901C10.6998 23.1501 10.4698 20.0501 10.7598 17.0001C11.0698 13.7501 14.0798 11.0801 17.5698 10.8001C20.3698 10.5701 23.2098 10.7501 26.1098 10.7501C26.1098 12.0801 26.1098 13.3401 26.1098 14.7301C23.6398 14.7301 21.2298 14.7101 18.8098 14.7401C18.1998 14.7501 17.5398 14.8001 16.9798 15.0301C15.4498 15.6501 14.5998 16.8101 14.5898 18.5101C14.5798 21.0801 14.5898 23.6501 14.5898 26.2901C13.2298 26.2901 11.9598 26.2901 10.6998 26.2901Z" fill="#030303" stroke="#030303" stroke-width="1.4"/>
<path d="M69.5098 14.6103C69.5098 13.3003 69.5098 12.0603 69.5098 10.9303C72.7598 10.9303 75.9598 10.6603 79.0998 11.0003C82.2798 11.3403 84.8898 14.4603 85.0498 17.6303C85.1898 20.4803 85.0798 23.3503 85.0798 26.2903C83.7798 26.2903 82.5198 26.2903 81.1398 26.2903C81.1398 23.9403 81.0298 21.6303 81.1698 19.3303C81.3598 16.1503 79.2098 14.5603 76.5198 14.7003C74.3198 14.8203 72.1098 14.7203 69.9098 14.7103C69.7998 14.7103 69.6998 14.6603 69.5098 14.6103Z" fill="#030303" stroke="#030303" stroke-width="1.4"/>
<path d="M59.23 47.4501C59.23 50.0201 59.21 52.5901 59.24 55.1701C59.25 56.0901 58.92 56.7401 57.98 56.7401C57.02 56.7401 56.73 56.0601 56.73 55.1601C56.75 49.9101 56.74 44.6501 56.73 39.4001C56.73 38.5501 57.01 37.9101 57.93 37.8901C58.91 37.8701 59.23 38.5001 59.23 39.4101C59.22 42.0901 59.23 44.7701 59.23 47.4501Z" fill="#030303" stroke="#030303"/>
<path d="M21.81 49.8303C20.96 49.8303 20.12 49.8603 19.27 49.8203C18.47 49.7903 17.94 49.4103 17.96 48.5303C17.97 47.7103 18.46 47.3103 19.22 47.3003C20.91 47.2703 22.6 47.2703 24.29 47.2903C25.11 47.3003 25.64 47.7603 25.63 48.5803C25.62 49.4003 25.05 49.8103 24.24 49.8203C23.43 49.8403 22.62 49.8303 21.81 49.8303Z" fill="#030303" stroke="#030303"/>
<path d="M47.05 21.9602C47.05 21.1202 47.02 20.2702 47.06 19.4302C47.09 18.6602 47.49 18.2102 48.31 18.2002C49.13 18.2002 49.55 18.6602 49.56 19.4202C49.59 21.1402 49.59 22.8702 49.56 24.5902C49.55 25.3802 49.07 25.8402 48.31 25.8402C47.55 25.8402 47.08 25.3802 47.05 24.6002C47.02 23.7202 47.05 22.8402 47.05 21.9602Z" fill="#030303" stroke="#030303"/>
<path d="M74.8299 49.83C74.0599 49.83 73.2898 49.83 72.5098 49.83C71.6598 49.83 71.0398 49.48 71.0098 48.58C70.9798 47.67 71.5898 47.28 72.4398 47.28C74.0598 47.27 75.6799 47.27 77.2899 47.28C78.0999 47.29 78.6498 47.65 78.6698 48.52C78.6898 49.38 78.1698 49.79 77.3498 49.81C76.5198 49.84 75.6699 49.82 74.8299 49.83Z" fill="#030303" stroke="#030303"/>
<path d="M49.5699 74.6C49.5699 75.3 49.5899 75.99 49.5699 76.69C49.5399 77.48 49.0499 77.94 48.3099 77.94C47.5699 77.94 47.0699 77.48 47.0599 76.69C47.0399 75.3 47.0299 73.9 47.0599 72.51C47.0799 71.73 47.5399 71.27 48.3099 71.27C49.0799 71.27 49.5299 71.74 49.5599 72.51C49.5899 73.2 49.5699 73.9 49.5699 74.6Z" fill="#030303" stroke="#030303"/>
</g>
<defs>
<clipPath id="clip0_1326_585">
<rect width="76" height="76" fill="white" transform="translate(10 10)"/>
</clipPath>
</defs>
</svg>
