<?xml version="1.0" encoding="UTF-8"?>
<svg xmlns="http://www.w3.org/2000/svg" width="80" height="80" viewBox="0 0 80 80" fill="none">
  <g clip-path="url(#clip0_4694_1989)">
    <path d="M21.0659 49V45.8267H24.7459V36.04H21.5726V33.6133C22.497 33.4356 23.2792 33.2222 23.9192 32.9733C24.5592 32.7244 25.1814 32.4222 25.7859 32.0667H28.6659V45.8267H31.8392V49H21.0659ZM37.5278 49C37.6344 47.1156 37.8389 45.4267 38.1411 43.9333C38.4433 42.44 38.9055 41.0089 39.5278 39.64C40.15 38.2711 40.9944 36.8489 42.0611 35.3733H34.4611V32.0667H46.2478V34.4667C45.27 35.6578 44.4789 36.7778 43.8744 37.8267C43.2878 38.8756 42.8255 39.9511 42.4878 41.0533C42.1678 42.1378 41.9366 43.32 41.7944 44.6C41.6522 45.88 41.5455 47.3467 41.4744 49H37.5278ZM51.8563 37.4267C51.8563 38.3156 52.0696 38.9467 52.4963 39.32C52.923 39.6933 53.4563 39.88 54.0963 39.88C54.5407 39.88 54.9852 39.7556 55.4296 39.5067C55.8919 39.24 56.2919 38.8044 56.6296 38.2C56.4519 36.8667 56.1141 35.9511 55.6163 35.4533C55.1363 34.9378 54.5941 34.68 53.9896 34.68C53.4207 34.68 52.923 34.9022 52.4963 35.3467C52.0696 35.7733 51.8563 36.4667 51.8563 37.4267ZM53.483 49.32C52.363 49.32 51.3852 49.1156 50.5496 48.7067C49.7319 48.2978 49.0563 47.8267 48.523 47.2933L50.603 44.9467C50.8874 45.2667 51.2696 45.5511 51.7496 45.8C52.2296 46.0311 52.7185 46.1467 53.2163 46.1467C53.8563 46.1467 54.4252 45.9867 54.923 45.6667C55.4385 45.3289 55.8563 44.7778 56.1763 44.0133C56.4963 43.2311 56.6741 42.1822 56.7096 40.8667C56.2652 41.4178 55.7141 41.8533 55.0563 42.1733C54.4163 42.4933 53.8385 42.6533 53.323 42.6533C52.363 42.6533 51.5007 42.4667 50.7363 42.0933C49.9896 41.72 49.3941 41.1511 48.9496 40.3867C48.5052 39.6044 48.283 38.6178 48.283 37.4267C48.283 36.2533 48.5407 35.24 49.0563 34.3867C49.5719 33.5333 50.2563 32.8844 51.1096 32.44C51.963 31.9778 52.8963 31.7467 53.9096 31.7467C55.0119 31.7467 56.0519 32.04 57.0296 32.6267C58.0074 33.1956 58.7985 34.0933 59.403 35.32C60.0252 36.5467 60.3363 38.1556 60.3363 40.1467C60.3363 42.2444 60.0074 43.9778 59.3496 45.3467C58.7096 46.6978 57.8652 47.7022 56.8163 48.36C55.7852 49 54.6741 49.32 53.483 49.32Z" fill="black"></path>
    <path d="M40.5555 71.1108C57.431 71.1108 71.1112 57.4306 71.1112 40.5553C71.1112 23.6799 57.431 9.99969 40.5555 9.99969C23.6802 9.99969 10 23.6799 10 40.5553C10 57.4306 23.6802 71.1108 40.5555 71.1108Z" stroke="black" stroke-width="3" stroke-linejoin="round"></path>
    <path d="M11.668 14.9997L23.3346 6.66638" stroke="black" stroke-width="3" stroke-linecap="round" stroke-linejoin="round"></path>
    <path d="M69.9987 14.9997L58.332 6.66638" stroke="black" stroke-width="3" stroke-linecap="round" stroke-linejoin="round"></path>
  </g>
  <defs>
    <clipPath id="clip0_4694_1989">
      <rect width="80" height="80" fill="white"></rect>
    </clipPath>
  </defs>
</svg>
