<?xml version="1.0" encoding="UTF-8"?>
<svg xmlns="http://www.w3.org/2000/svg" width="80" height="80" viewBox="0 0 80 80" fill="none">
  <g clip-path="url(#clip0_3080_689)">
    <path opacity="0.01" d="M71.6667 30H50V51.6667H71.6667V30Z" fill="black"></path>
    <mask id="mask0_3080_689" style="mask-type:alpha" maskUnits="userSpaceOnUse" x="50" y="30" width="22" height="22">
      <path d="M71.6667 30H50V51.6667H71.6667V30Z" fill="#333333"></path>
    </mask>
    <g mask="url(#mask0_3080_689)">
      <path fill-rule="evenodd" clip-rule="evenodd" d="M68.9521 34.8712C69.5379 34.2854 69.5379 33.3357 68.9521 32.7499C68.3663 32.1641 67.4166 32.1641 66.8308 32.7499L60.8204 38.7603L54.8099 32.7499C54.2241 32.1641 53.2744 32.1641 52.6886 32.7499C52.1028 33.3357 52.1028 34.2854 52.6886 34.8712L58.699 40.8816L52.6886 46.8921C52.1028 47.4778 52.1028 48.4276 52.6886 49.0134C53.2744 49.5992 54.2241 49.5992 54.8099 49.0134L60.8204 43.0029L66.8308 49.0134C67.4166 49.5992 68.3663 49.5992 68.9521 49.0134C69.5379 48.4276 69.5379 47.4778 68.9521 46.8921L62.9417 40.8816L68.9521 34.8712Z" fill="black"></path>
    </g>
    <path d="M40.0001 10V70C28.3334 70 19.6642 54.7318 19.6642 54.7318H11.6667C8.90533 54.7318 6.66675 52.4933 6.66675 49.7318V30.0069C6.66675 27.2428 8.90955 25.0031 11.6737 25.0069L19.6642 25.018C19.6642 25.018 28.3334 10 40.0001 10Z" stroke="black" stroke-width="3" stroke-linejoin="round"></path>
  </g>
  <defs>
    <clipPath id="clip0_3080_689">
      <rect width="80" height="80" fill="white"></rect>
    </clipPath>
  </defs>
</svg>
