<?xml version="1.0" encoding="UTF-8"?>
<svg xmlns="http://www.w3.org/2000/svg" width="80" height="80" viewBox="0 0 80 80" fill="none">
  <g clip-path="url(#clip0_3080_692)">
    <path d="M3.77312 49V46.2233H7.48312V35.3033H4.35645V33.18C6.08312 32.8533 7.27312 32.41 8.36978 31.7333H10.9131V46.2233H14.1564V49H3.77312ZM22.4833 49.3267C18.96 49.3267 16.6267 46.2467 16.6267 40.2967C16.6267 34.3233 18.96 31.4067 22.4833 31.4067C25.9833 31.4067 28.3167 34.3467 28.3167 40.2967C28.3167 46.2467 25.9833 49.3267 22.4833 49.3267ZM22.4833 46.6433C23.9533 46.6433 25.0733 45.15 25.0733 40.2967C25.0733 35.4667 23.9533 34.0667 22.4833 34.0667C20.99 34.0667 19.87 35.4667 19.87 40.2967C19.87 45.15 20.99 46.6433 22.4833 46.6433ZM36.2002 49.3267C32.9103 49.3267 30.4369 47.4133 30.4369 44.7067C30.4369 42.49 31.7902 41.0667 33.4003 40.2033V40.0867C32.0703 39.13 31.1136 37.8233 31.1136 35.98C31.1136 33.2033 33.3069 31.43 36.3169 31.43C39.3736 31.43 41.3336 33.2733 41.3336 36.0267C41.3336 37.73 40.2602 39.1533 39.1169 39.97V40.0867C40.7036 40.95 42.0103 42.35 42.0103 44.7067C42.0103 47.32 39.7003 49.3267 36.2002 49.3267ZM37.2969 39.13C38.1369 38.2433 38.5336 37.2633 38.5336 36.2367C38.5336 34.8367 37.6936 33.8333 36.2469 33.8333C35.0802 33.8333 34.1469 34.6033 34.1469 35.98C34.1469 37.6133 35.4769 38.4067 37.2969 39.13ZM36.2936 46.9C37.7402 46.9 38.8136 46.0833 38.8136 44.59C38.8136 42.7933 37.2269 42.0467 34.9869 41.1367C34.0536 41.8833 33.4003 43.05 33.4003 44.3333C33.4003 45.8967 34.6836 46.9 36.2936 46.9ZM45.5479 49H43.7576V39.2539H45.5479V45.3997L48.1977 42.0404H50.2419L47.9307 44.944L50.2419 49H48.1977L46.7849 46.4674L45.5479 48.1081V49ZM59.8123 49H58.0414V44.5729C58.0414 44.4514 58.0175 44.3364 57.9698 44.2279C57.9264 44.1194 57.8635 44.0239 57.781 43.9414C57.6985 43.8589 57.6031 43.796 57.4945 43.7526C57.386 43.7049 57.271 43.681 57.1495 43.681C57.028 43.681 56.9129 43.7049 56.8044 43.7526C56.7003 43.796 56.607 43.8589 56.5245 43.9414C56.4464 44.0239 56.3834 44.1194 56.3357 44.2279C56.2923 44.3364 56.2706 44.4514 56.2706 44.5729V49H54.4932V44.5729C54.4932 44.4514 54.4694 44.3364 54.4216 44.2279C54.3782 44.1194 54.3153 44.0239 54.2328 43.9414C54.1504 43.8589 54.0549 43.796 53.9464 43.7526C53.8379 43.7049 53.7228 43.681 53.6013 43.681C53.4798 43.681 53.3648 43.7049 53.2563 43.7526C53.1521 43.796 53.0588 43.8589 52.9763 43.9414C52.8982 44.0239 52.8353 44.1194 52.7875 44.2279C52.7441 44.3364 52.7224 44.4514 52.7224 44.5729V49H50.9451V42.0273H51.3748L51.8565 42.5612C52.1039 42.3529 52.3752 42.1923 52.6703 42.0794C52.9698 41.9622 53.2801 41.9036 53.6013 41.9036C53.9268 41.9036 54.2437 41.9644 54.5518 42.0859C54.8643 42.2075 55.1378 42.418 55.3721 42.7174C55.4807 42.5699 55.6044 42.444 55.7432 42.3398C55.8821 42.2357 56.0275 42.151 56.1794 42.0859C56.3357 42.0208 56.4963 41.9753 56.6612 41.9492C56.8261 41.9188 56.9889 41.9036 57.1495 41.9036C57.5184 41.9036 57.8635 41.9731 58.1846 42.112C58.5102 42.2509 58.7923 42.4418 59.031 42.6849C59.2741 42.9236 59.465 43.2057 59.6039 43.5313C59.7428 43.8568 59.8123 44.204 59.8123 44.5729V49ZM62.7289 49H60.8083L64.6755 39.6641H66.5961L62.7289 49ZM69.4281 49H67.6508V39.2539H69.4281V42.3333C69.6408 42.1727 69.86 42.0599 70.0857 41.9948C70.3114 41.9253 70.5414 41.8906 70.7758 41.8906C71.2055 41.8906 71.6091 41.9731 71.9867 42.138C72.3643 42.2986 72.692 42.5221 72.9698 42.8086C73.2519 43.0907 73.4733 43.4227 73.6339 43.8047C73.7988 44.1823 73.8813 44.5859 73.8813 45.0156V49H72.0909V45.0156H72.1039C72.1039 44.8333 72.0692 44.6619 71.9998 44.5013C71.9303 44.3364 71.8348 44.1931 71.7133 44.0716C71.5918 43.9501 71.4507 43.8546 71.2901 43.7852C71.1295 43.7157 70.9581 43.681 70.7758 43.681C70.5892 43.681 70.4134 43.7157 70.2484 43.7852C70.0835 43.8546 69.9403 43.9501 69.8188 44.0716C69.6972 44.1931 69.6017 44.3364 69.5323 44.5013C69.4629 44.6619 69.4281 44.8333 69.4281 45.0156V49Z" fill="black"></path>
    <path d="M8.3335 19.1665H72.9168" stroke="black" stroke-width="3" stroke-linecap="round"></path>
    <path d="M8.3335 59.1665H72.9168" stroke="black" stroke-width="3" stroke-linecap="round"></path>
    <path d="M44.167 14.1665H70.417" stroke="black" stroke-linecap="round"></path>
    <path d="M32.5002 65.8335H58.7502" stroke="black" stroke-linecap="round"></path>
    <path d="M27.5002 10H50.8336" stroke="black" stroke-width="2" stroke-linecap="round"></path>
    <path d="M23.3335 70H47.5002" stroke="black" stroke-width="2" stroke-linecap="round"></path>
  </g>
  <defs>
    <clipPath id="clip0_3080_692">
      <rect width="80" height="80" fill="white"></rect>
    </clipPath>
  </defs>
</svg>
