<?xml version="1.0" encoding="UTF-8"?>
<svg width="80px" height="80px" viewBox="0 0 80 80" version="1.1" xmlns="http://www.w3.org/2000/svg" xmlns:xlink="http://www.w3.org/1999/xlink">
    <title>icon/买点/42分钟持久续航</title>
    <g id="icon/买点/42分钟持久续航" stroke="none" stroke-width="1" fill="none" fill-rule="evenodd">
        <g id="编组" transform="translate(2.500000, 5.500000)" fill="#FFFFFF" fill-rule="nonzero">
            <path d="M34.4581061,0 C44.6593231,0 54.1389876,4.46615234 60.6450175,12.0751963 C61.1833868,12.7048391 61.1093949,13.6517 60.4797521,14.1900692 C59.8501092,14.7284384 58.9032484,14.6544465 58.3648792,14.0248037 C52.4228104,7.0753333 43.7726818,3 34.4581061,3 C17.0846924,3 3,17.1025959 3,34.5 C3,51.8974041 17.0846924,66 34.4581061,66 C48.298379,66 60.39266,56.9690544 64.4761518,43.9510488 C64.7241008,43.1605977 65.5658902,42.7208129 66.3563413,42.9687618 C67.1467923,43.2167107 67.5865772,44.0585002 67.3386282,44.8489512 C62.8656304,59.1086863 49.6191407,69 34.4581061,69 C15.4269845,69 0,53.5534059 0,34.5 C0,15.4465941 15.4269845,0 34.4581061,0 Z" id="路径"></path>
            <path d="M48.6745851,30.276 L52.9261808,30.276 L52.9261808,26.53875 C52.9261808,25.4745 53.0250551,23.81625 53.0744923,22.752 L52.975618,22.752 C52.5306835,23.71725 52.0363119,24.732 51.5172218,25.722 L48.6745851,30.276 Z M58.4878612,30.276 L58.4878612,33.048 L56.3126262,33.048 L56.3126262,37.8 L52.9261808,37.8 L52.9261808,33.048 L45.1398282,33.048 L45.1398282,30.573 L51.9621562,19.485 L56.3126262,19.485 L56.3126262,30.276 L58.4878612,30.276 Z M60.2395845,37.8 L60.2395845,35.69625 C65.208019,31.24125 68.14953,27.801 68.14953,24.9795 C68.14953,23.12325 67.1360682,22.0095 65.4057677,22.0095 C64.0709644,22.0095 62.9586283,22.87575 62.0440408,23.8905 L60.0665545,21.9105 C61.7474179,20.1285 63.3788441,19.1385 65.8754207,19.1385 C69.3360218,19.1385 71.6348497,21.366 71.6348497,24.7815 C71.6348497,28.098 68.8910874,31.662 65.5540791,34.929 C66.4686666,34.83 67.679877,34.731 68.5203087,34.731 L72.5,34.731 L72.5,37.8 L60.2395845,37.8 Z" id="形状"></path>
            <path d="M34.0166553,13.2 C34.7963514,13.2 35.4370948,13.7949099 35.5097679,14.5555629 L35.5166322,14.7000231 L35.5163027,36.1432581 C35.5162899,36.9716852 34.8447067,37.643235 34.0162796,37.643235 C33.2365835,37.643235 32.5958401,37.0483251 32.523167,36.2876721 L32.5163027,36.1432119 L32.5166322,14.6999769 C32.516645,13.8715498 33.1882282,13.2 34.0166553,13.2 Z" id="路径"></path>
            <path d="M34.0162925,34.64307 C34.8447196,34.64307 35.5163027,35.3146327 35.5163027,36.1430598 C35.5163027,36.9227559 34.9214242,37.5635125 34.1607728,37.6362024 L34.0163129,37.64307 L9.73953671,37.643235 C8.91110959,37.643235 8.23952652,36.9716723 8.23952652,36.1432452 C8.23952652,35.3635491 8.83440495,34.7227925 9.59505636,34.6501026 L9.73951632,34.643235 L34.0162925,34.64307 Z" id="路径"></path>
        </g>
    </g>
</svg>