<?xml version="1.0" encoding="UTF-8"?>
<svg xmlns="http://www.w3.org/2000/svg" xmlns:i="http://ns.adobe.com/AdobeIllustrator/10.0/" id="_图层_1" data-name="图层_1" version="1.1" viewBox="0 0 870 85">
  <!-- Generator: Adobe Illustrator 29.4.0, SVG Export Plug-In . SVG Version: 2.1.0 Build 152)  -->
  <defs>
    <style>
      .st0 {
        fill: #1a1a1a;
      }
    </style>
  </defs>
  <path class="st0" d="M552.39,28.6v-10.46h49.29c15.57,0,23.36,6.98,23.36,20.92v20.92c0,13.94-7.79,20.92-23.36,20.92h-33.17c-15.57,0-23.36-6.98-23.36-20.92s7.79-20.92,23.36-20.92h33.17c4.55,0,8.45.59,11.68,1.79v-1.79c0-6.96-3.91-10.46-11.68-10.46h-49.29ZM613.36,59.98c0-6.98-3.91-10.46-11.68-10.46h-33.17c-7.79,0-11.68,3.48-11.68,10.46s3.89,10.46,11.68,10.46h33.17c7.77,0,11.68-3.48,11.68-10.46"></path>
  <path class="st0" d="M405.14,45.49c-.23,5.28-1.08,10.08-2.54,14.39-1.74,5.11-4.38,9.38-7.94,12.8-4.85,4.65-11.36,7.92-19.52,9.83-8.16,1.91-18.43,2.86-30.79,2.86h-17.34c-12.28,0-22.48-.95-30.61-2.86-8.12-1.91-14.61-5.18-19.46-9.83-3.55-3.43-6.2-7.7-7.94-12.8-1.47-4.31-2.31-9.1-2.54-14.39h23.3c.21,3.29.79,6.17,1.72,8.62,1.21,3.16,3.11,5.73,5.7,7.71,1.46,1.07,3.17,1.96,5.15,2.69,1.98.72,4.26,1.28,6.85,1.66,2.59.38,5.52.65,8.79.8,3.27.15,6.97.23,11.09.23h13.45c4.12,0,7.82-.08,11.09-.23,3.28-.15,6.2-.42,8.79-.8,2.58-.38,4.87-.93,6.85-1.66,1.98-.73,3.7-1.62,5.15-2.69,2.58-1.98,4.48-4.55,5.7-7.71.94-2.45,1.51-5.33,1.73-8.62h23.3ZM344.59-.37c12.29,0,22.49.95,30.61,2.86,8.12,1.91,14.61,5.18,19.46,9.83,3.55,3.43,6.2,7.69,7.94,12.8,1.47,4.31,2.31,9.11,2.54,14.39h-23.3c-.21-3.29-.79-6.17-1.73-8.62-1.21-3.16-3.11-5.74-5.7-7.72-2.99-2.13-6.99-3.56-12-4.29-5.01-.73-11.68-1.09-20-1.09h-13.21c-8.32,0-14.99.36-20,1.09-5.01.72-9.01,2.15-12,4.29-2.58,1.98-4.48,4.55-5.7,7.72-.94,2.45-1.51,5.32-1.72,8.62h-23.3c.23-5.28,1.08-10.08,2.54-14.39,1.74-5.11,4.38-9.37,7.94-12.8,4.85-4.65,11.34-7.93,19.46-9.83,8.12-1.91,18.33-2.86,30.61-2.86h17.58Z"></path>
  <path class="st0" d="M209.99,80.4l-2.56,3.6h-19.28L129,1h25.58l14.08,20.15-.24.16,41.58,59.09ZM241.13,1h25.33l-52.65,74.02-11.79-16.76L241.13,1Z"></path>
  <polygon class="st0" points="28.52 1 119.57 1 131.37 17.47 28.52 17.47 28.52 1"></polygon>
  <polygon class="st0" points="28.52 33.24 87.24 33.24 99.04 49.7 28.52 49.7 28.52 33.24"></polygon>
  <polygon class="st0" points="22.18 84 0 84 0 1 22.18 1 22.18 17.47 22.18 33.58 22.18 49.36 22.18 67.53 22.18 84"></polygon>
  <rect class="st0" x="28.52" y="67.54" width="103.15" height="16.46"></rect>
  <polygon class="st0" points="519.53 2.86 489.84 42.43 459.58 3.24 459.36 2.86 448.13 2.86 448.13 80.9 459.7 80.9 459.7 24.83 484.93 55.01 494.37 55.01 519.2 24.87 519.2 80.9 530.77 80.9 530.77 2.86 519.53 2.86"></polygon>
  <polygon class="st0" points="717.14 80.9 698.18 80.9 675.94 56.88 653.94 80.9 635.47 80.9 667.4 49.29 636.95 17.94 655.25 17.94 676.92 42.15 698.18 17.94 715.82 17.94 684.88 49.54 717.14 80.9"></polygon>
  <path class="st0" d="M807.4,64.18h-10.6v17.16h-12.32v-17.16h-35.93v-9.73l35.93-51.96h12.32v51.2h10.6v10.49ZM784.49,53.69v-19.74c0-7.03.18-12.78.54-17.27h-.43c-1,2.37-2.58,5.24-4.74,8.61l-19.52,28.4h24.15Z"></path>
  <polygon class="st0" points="846.87 81.34 834.02 81.34 834.02 13.73 810.9 13.73 810.9 2.71 870 2.71 870 13.73 846.87 13.73 846.87 81.34"></polygon>
  <metadata></metadata>
</svg>
