<?xml version="1.0" encoding="UTF-8"?>
<svg width="410px" height="38px" viewBox="0 0 410 38" version="1.1" xmlns="http://www.w3.org/2000/svg" xmlns:xlink="http://www.w3.org/1999/xlink">
    <title>编组 4</title>
    <defs>
        <rect id="path-1" x="0" y="0" width="320" height="38"></rect>
        <rect id="path-3" x="0" y="0" width="320" height="38"></rect>
        <rect id="path-5" x="0" y="0" width="320" height="38"></rect>
        <rect id="path-7" x="0" y="0" width="320" height="38"></rect>
        <rect id="path-9" x="0" y="0" width="320" height="38"></rect>
        <rect id="path-11" x="0" y="0" width="320" height="38"></rect>
        <rect id="path-13" x="0" y="0" width="320" height="38"></rect>
        <rect id="path-15" x="0" y="0" width="320" height="38"></rect>
        <rect id="path-17" x="0" y="0" width="320" height="38"></rect>
    </defs>
    <g id="页面-2" stroke="none" stroke-width="1" fill="none" fill-rule="evenodd">
        <g id="4N-暗色" transform="translate(-755.000000, -315.000000)">
            <g id="编组-4" transform="translate(755.000000, 315.000000)">
                <g id="编组">
                    <g id="Clipped">
                        <mask id="mask-2" fill="white">
                            <use xlink:href="#path-1"></use>
                        </mask>
                        <g id="SVGID_1_"></g>
                        <path d="M246.488752,12.836448 L246.488752,8.19847919 L268.479507,8.19847919 C275.42681,8.19847919 278.902928,11.2937234 278.902928,17.4695193 L278.902928,26.7405594 C278.902928,32.9163552 275.42188,36.0115994 268.479507,36.0115994 L253.677658,36.0115994 C246.730354,36.0115994 243.254237,32.9212527 243.254237,26.7405594 C243.254237,20.559866 246.730354,17.4695193 253.677658,17.4695193 L268.479507,17.4695193 C270.506009,17.4695193 272.251464,17.7290888 273.691217,18.2629205 L273.691217,17.4695193 C273.691217,14.3840701 271.945763,12.8315505 268.479507,12.8315505 L246.488752,12.8315505 L246.488752,12.836448 Z M273.691217,26.7454569 C273.691217,23.6502127 271.945763,22.1074881 268.479507,22.1074881 L253.677658,22.1074881 C250.201541,22.1074881 248.465948,23.6502127 248.465948,26.7454569 C248.465948,29.8407011 250.201541,31.3834257 253.677658,31.3834257 L268.479507,31.3834257 C271.950693,31.3785282 273.691217,29.8407011 273.691217,26.7454569" id="形状" fill="#FFFFFF" fill-rule="nonzero" mask="url(#mask-2)"></path>
                    </g>
                    <g id="Clipped">
                        <mask id="mask-4" fill="white">
                            <use xlink:href="#path-3"></use>
                        </mask>
                        <g id="SVGID_1_"></g>
                        <path d="M180.782743,20.3198866 C180.679199,22.6609099 180.304468,24.7864416 179.64869,26.6964815 C178.874576,28.9591442 177.691217,30.849594 176.103544,32.3727284 C173.938983,34.4345921 171.034823,35.8842634 167.395994,36.7315376 C163.752234,37.5739142 159.176579,38 153.659168,38 L145.922958,38 C140.444992,38 135.88906,37.5788117 132.265023,36.7315376 C128.640986,35.889161 125.746687,34.4345921 123.582126,32.3727284 C121.994453,30.8544916 120.816025,28.9591442 120.03698,26.6964815 C119.381202,24.7864416 119.006471,22.6609099 118.902928,20.3198866 L129.301695,20.3198866 C129.395378,21.779353 129.651772,23.052713 130.070878,24.1399665 C130.613251,25.5406625 131.461325,26.6817889 132.6151,27.5584483 C133.265948,28.0335095 134.0302,28.4302101 134.912789,28.7485501 C135.795378,29.0668901 136.816025,29.311767 137.9698,29.4831808 C139.123575,29.6496971 140.4302,29.7721356 141.889676,29.8358036 C143.349153,29.9043691 145.000924,29.9386519 146.840062,29.9386519 L152.845609,29.9386519 C154.684746,29.9386519 156.336518,29.9043691 157.795994,29.8358036 C159.25547,29.767238 160.562096,29.6496971 161.715871,29.4831808 C162.869646,29.3166645 163.890293,29.0717876 164.772881,28.7485501 C165.65547,28.4253125 166.424653,28.0286119 167.07057,27.5584483 C168.224345,26.6817889 169.072419,25.5406625 169.614792,24.1399665 C170.033898,23.052713 170.290293,21.779353 170.383975,20.3198866 L180.782743,20.3198866 L180.782743,20.3198866 Z M153.762712,0 C159.245609,0 163.79661,0.421188297 167.420647,1.26846243 C171.044684,2.11083903 173.938983,3.56540791 176.103544,5.62727156 C177.691217,7.14550844 178.869646,9.04085578 179.64869,11.3035185 C180.304468,13.2135584 180.679199,15.3390901 180.782743,17.6801134 L170.383975,17.6801134 C170.290293,16.220647 170.033898,14.947287 169.614792,13.8600335 C169.072419,12.4593375 168.224345,11.3182111 167.07057,10.4415517 C165.739291,9.49632685 163.949461,8.8645444 161.715871,8.54130687 C159.47735,8.21806934 156.50416,8.06134811 152.791371,8.06134811 L146.894299,8.06134811 C143.18151,8.06134811 140.20339,8.22296688 137.9698,8.54130687 C135.731279,8.85964686 133.946379,9.49632685 132.6151,10.4415517 C131.461325,11.3182111 130.613251,12.4593375 130.070878,13.8600335 C129.651772,14.947287 129.395378,16.220647 129.301695,17.6801134 L118.902928,17.6801134 C119.006471,15.3390901 119.381202,13.2135584 120.03698,11.3035185 C120.811094,9.04085578 121.994453,7.15040598 123.582126,5.62727156 C125.746687,3.56540791 128.640986,2.11573656 132.265023,1.26846243 C135.88906,0.426085836 140.440062,0 145.922958,0 L153.762712,0 L153.762712,0 Z" id="形状" fill="#FFFFFF" fill-rule="nonzero" mask="url(#mask-4)"></path>
                    </g>
                    <g id="Clipped">
                        <mask id="mask-6" fill="white">
                            <use xlink:href="#path-5"></use>
                        </mask>
                        <g id="SVGID_1_"></g>
                        <path d="M93.7023112,35.7961077 L92.5583975,37.3927052 L83.959322,37.3927052 L57.5654854,0.607294754 L68.9799692,0.607294754 L75.2616333,9.53550715 L75.1531587,9.60407269 L93.7023112,35.7961077 Z M107.596918,0.607294754 L118.902928,0.607294754 L95.4083205,33.4159041 L90.1473035,25.9863384 L107.596918,0.607294754 Z" id="形状" fill="#FFFFFF" fill-rule="nonzero" mask="url(#mask-6)"></path>
                    </g>
                    <g id="Clipped">
                        <mask id="mask-8" fill="white">
                            <use xlink:href="#path-7"></use>
                        </mask>
                        <g id="SVGID_1_"></g>
                        <polygon id="路径" fill="#FFFFFF" fill-rule="nonzero" mask="url(#mask-8)" points="12.7260401 0.607294754 53.3546995 0.607294754 58.6206471 7.89972935 12.7260401 7.89972935"></polygon>
                    </g>
                    <g id="Clipped">
                        <mask id="mask-10" fill="white">
                            <use xlink:href="#path-9"></use>
                        </mask>
                        <g id="SVGID_1_"></g>
                        <polygon id="路径" fill="#FFFFFF" fill-rule="nonzero" mask="url(#mask-10)" points="12.7260401 14.8934141 38.9275809 14.8934141 44.1935285 22.1907462 12.7260401 22.1907462"></polygon>
                    </g>
                    <g id="Clipped">
                        <mask id="mask-12" fill="white">
                            <use xlink:href="#path-11"></use>
                        </mask>
                        <g id="SVGID_1_"></g>
                        <polygon id="路径" fill="#FFFFFF" fill-rule="nonzero" mask="url(#mask-12)" points="9.90077042 37.3878077 0 37.3878077 0 0.607294754 9.90077042 0.607294754 9.90077042 7.89972935 9.90077042 15.0452378 9.90077042 22.0389225 9.90077042 30.0953731"></polygon>
                    </g>
                    <g id="Clipped">
                        <mask id="mask-14" fill="white">
                            <use xlink:href="#path-13"></use>
                        </mask>
                        <g id="SVGID_1_"></g>
                        <rect id="矩形" fill="#FFFFFF" fill-rule="nonzero" mask="url(#mask-14)" x="12.7260401" y="30.0953731" width="46.027735" height="7.29733213"></rect>
                    </g>
                    <g id="Clipped">
                        <mask id="mask-16" fill="white">
                            <use xlink:href="#path-15"></use>
                        </mask>
                        <g id="SVGID_1_"></g>
                        <polygon id="路径" fill="#FFFFFF" fill-rule="nonzero" mask="url(#mask-16)" points="231.824961 1.42518366 218.576271 18.968166 205.071186 1.5965975 204.977504 1.42518366 199.96302 1.42518366 199.96302 36.016497 205.125424 36.016497 205.125424 11.1663874 216.382126 24.5415646 220.597843 24.5415646 231.677042 11.1859776 231.677042 36.016497 236.839445 36.016497 236.839445 1.42518366"></polygon>
                    </g>
                    <g id="Clipped">
                        <mask id="mask-18" fill="white">
                            <use xlink:href="#path-17"></use>
                        </mask>
                        <g id="SVGID_1_"></g>
                        <polygon id="路径" fill="#FFFFFF" fill-rule="nonzero" mask="url(#mask-18)" points="320 36.016497 311.538983 36.016497 301.613559 25.3692486 291.801541 36.016497 283.557473 36.016497 297.807088 22.0095373 284.218182 8.1103235 292.383359 8.1103235 302.052388 18.84083 311.538983 8.1103235 319.413251 8.1103235 305.607396 22.1221807"></polygon>
                    </g>
                </g>
                <g id="编组-3" transform="translate(344.220439, 1.000000)" fill="#FFFFFF" fill-rule="nonzero">
                    <path d="M29.3918919,27.3095238 L23.8618166,27.3095238 L23.8618166,35 L18.0262123,35 L18.0262123,27.3095238 L2.84217094e-14,27.3095238 L2.84217094e-14,23.5952381 L17.812342,0 L23.8618166,0 L23.8618166,23.3809524 L29.3918919,23.3809524 L29.3918919,27.3095238 Z M17.3635039,23.6486486 L17.3635039,12.2134954 C17.3635039,11.6505835 17.3735643,11.0635468 17.3936852,10.4523853 C17.413806,9.84122377 17.438957,9.24212468 17.4691383,8.65508797 C17.4993195,8.06805127 17.5295008,7.52122256 17.559682,7.01460185 C17.5898633,6.50798114 17.6150143,6.06167241 17.6351351,5.67567568 L17.3936852,5.67567568 C17.051631,6.36725316 16.6743654,7.06285144 16.2618884,7.76247052 C15.8494113,8.46208961 15.4218436,9.1174799 14.9791853,9.72864139 L4.89864865,23.6486486 L17.3635039,23.6486486 Z" id="形状"></path>
                    <path d="M65.7795608,35 L58.7177847,35 L40.0758929,6.75102599 L39.8365106,6.75102599 C39.9163047,7.64477884 39.9861245,8.55848153 40.0459701,9.49213406 C40.1058156,10.4257866 40.1556869,11.3634291 40.195584,12.3050616 C40.235481,13.246694 40.2554295,14.1723666 40.2554295,15.0820793 L40.2554295,35 L34.7795608,35 L34.7795608,0 L41.8114141,0 L60.4233832,27.9377565 L60.6328427,27.9377565 C60.5729971,27.1078431 60.5181387,26.2180803 60.4682674,25.2684679 C60.4183961,24.3188554 60.3735119,23.369243 60.3336149,22.4196306 C60.2937178,21.4700182 60.2737693,20.5802554 60.2737693,19.750342 L60.2737693,0 L65.7795608,0 L65.7795608,35 Z" id="路径"></path>
                </g>
            </g>
        </g>
    </g>
</svg>