<?xml version="1.0" encoding="UTF-8"?>
<svg width="80px" height="80px" viewBox="0 0 80 80" version="1.1" xmlns="http://www.w3.org/2000/svg" xmlns:xlink="http://www.w3.org/1999/xlink">
    <title>icon/买点/5公里星光源</title>
    <g id="icon/买点/5公里星光源" stroke="none" stroke-width="1" fill="none" fill-rule="evenodd">
        <g id="编组" transform="translate(2.500000, 4.732915)" fill="#FFFFFF">
            <path d="M20.5,37.728 L72.4917354,68.2061942 C73.1643776,68.6005017 73.4163071,69.4377515 73.0943356,70.1307225 L73.0272031,70.2588204 C72.6328956,70.9314627 71.7956458,71.1833921 71.1026748,70.8614206 L70.9745769,70.7942881 L20.5,41.205 L20.5,37.728 Z M73.0272031,0.741661907 C73.4215106,1.41430417 73.2323429,2.2679266 72.6128882,2.71530808 L72.4917354,2.79428811 L20.5,33.272 L20.5,29.795 L70.9745769,0.206194202 C71.6892593,-0.212757549 72.6082513,0.0269795085 73.0272031,0.741661907 Z" id="形状结合" fill-rule="nonzero"></path>
            <path d="M11.5,23.767085 C5.14872538,23.767085 0,28.9158104 0,35.267085 C0,41.6183596 5.14872538,46.767085 11.5,46.767085 C17.8512746,46.767085 23,41.6183596 23,35.267085 C23,28.9158104 17.8512746,23.767085 11.5,23.767085 Z M11.5,26.767085 C16.1944204,26.767085 20,30.5726646 20,35.267085 C20,39.9615054 16.1944204,43.767085 11.5,43.767085 C6.80557963,43.767085 3,39.9615054 3,35.267085 C3,30.5726646 6.80557963,26.767085 11.5,26.767085 Z" id="椭圆形" fill-rule="nonzero"></path>
            <g id="5km" transform="translate(35.124000, 25.963085)" fill-rule="nonzero">
                <path d="M6.024,17.64 C9.264,17.64 12.216,15.432 12.216,11.64 C12.216,7.944 9.744,6.24 6.744,6.24 C5.928,6.24 5.304,6.408 4.608,6.72 L4.944,2.952 L11.4,2.952 L11.4,0 L1.896,0 L1.416,8.616 L3.024,9.672 C4.08,9 4.656,8.736 5.688,8.736 C7.464,8.736 8.688,9.816 8.688,11.736 C8.688,13.68 7.392,14.76 5.544,14.76 C3.912,14.76 2.64,13.944 1.632,12.96 L0,15.216 C1.344,16.536 3.192,17.64 6.024,17.64 Z" id="路径"></path>
                <polygon id="路径" points="14.8 17.304 17.12 17.304 17.12 15.032 18.368 13.576 20.544 17.304 23.104 17.304 19.744 12.04 22.816 8.344 20.24 8.344 17.184 12.184 17.12 12.184 17.12 4.536 14.8 4.536"></polygon>
                <path d="M24.464,17.304 L26.816,17.304 L26.816,11.144 C27.44,10.456 28.016,10.136 28.528,10.136 C29.392,10.136 29.792,10.616 29.792,12.008 L29.792,17.304 L32.128,17.304 L32.128,11.144 C32.768,10.456 33.344,10.136 33.856,10.136 C34.704,10.136 35.104,10.616 35.104,12.008 L35.104,17.304 L37.44,17.304 L37.44,11.72 C37.44,9.464 36.576,8.12 34.672,8.12 C33.52,8.12 32.64,8.824 31.808,9.688 C31.392,8.696 30.64,8.12 29.36,8.12 C28.192,8.12 27.36,8.76 26.608,9.544 L26.56,9.544 L26.384,8.344 L24.464,8.344 L24.464,17.304 Z" id="路径"></path>
            </g>
            <polygon id="路径备份" points="66.4968199 27.267085 64.1009938 21.6660912 58.5 19.2639049 64.1009938 16.6641533 66.4968199 11.267085 68.8990062 16.6641533 74.5 19.2639049 68.8990062 21.6660912"></polygon>
            <polygon id="路径备份" points="61.5030349 55.267085 60.2997461 52.467339 57.5 51.2640502 60.2997461 49.9655041 61.5030349 47.267085 62.7003778 49.9655041 65.5 51.2640502 62.7003778 52.467339"></polygon>
        </g>
    </g>
</svg>