<?xml version="1.0" encoding="UTF-8"?>
<svg width="80px" height="80px" viewBox="0 0 80 80" version="1.1" xmlns="http://www.w3.org/2000/svg" xmlns:xlink="http://www.w3.org/1999/xlink">
    <title>icon/买点/AI目标识别</title>
    <g id="icon/买点/AI目标识别" stroke="none" stroke-width="1" fill="none" fill-rule="evenodd">
        <g id="编组" transform="translate(7.000000, 7.000000)" fill="#FFFFFF">
            <path d="M59.4,0 C63.045015,0 66,2.954919 66,6.6 L66,18.15 C66,19.061295 65.261295,19.8 64.35,19.8 C63.438705,19.8 62.7,19.061295 62.7,18.15 L62.7,6.6 C62.7,4.7774595 61.22259,3.3 59.4,3.3 L47.85,3.3 C46.938705,3.3 46.2,2.561262 46.2,1.65 C46.2,0.738738 46.938705,0 47.85,0 L59.4,0 Z M6.6,66 C2.954919,66 0,63.045015 0,59.4 L0,47.85 C0,46.938705 0.738738,46.2 1.65,46.2 C2.561262,46.2 3.3,46.938705 3.3,47.85 L3.3,59.4 C3.3,61.22259 4.7774595,62.7 6.6,62.7 L18.15,62.7 C19.061295,62.7 19.8,63.438705 19.8,64.35 C19.8,65.261295 19.061295,66 18.15,66 L6.6,66 Z M66,59.4 C66,63.045015 63.045015,66 59.4,66 L47.85,66 C46.938705,66 46.2,65.261295 46.2,64.35 C46.2,63.438705 46.938705,62.7 47.85,62.7 L59.4,62.7 C61.22259,62.7 62.7,61.22259 62.7,59.4 L62.7,47.85 C62.7,46.938705 63.438705,46.2 64.35,46.2 C65.261295,46.2 66,46.938705 66,47.85 L66,59.4 Z M6.6,0 C2.954919,0 0,2.954919 0,6.6 L0,18.15 C0,19.061295 0.738738,19.8 1.65,19.8 C2.561262,19.8 3.3,19.061295 3.3,18.15 L3.3,6.6 C3.3,4.7774595 4.7774595,3.3 6.6,3.3 L18.15,3.3 C19.061295,3.3 19.8,2.561262 19.8,1.65 C19.8,0.738738 19.061295,0 18.15,0 L6.6,0 Z" id="形状"></path>
            <path d="M22.36245,41.07576 C21.54735,40.66821 21.21702,39.677055 21.62457,38.86212 L24.083565,33.943965 C24.093465,33.923175 24.103695,33.902715 24.11442,33.88242 L28.217145,25.67697 C28.296345,25.514115 28.402605,25.363635 28.533285,25.232955 C28.68129,25.08495 28.85454,24.96846 29.04231,24.886785 C29.25582,24.793725 29.47956,24.7496695 29.70033,24.7496695 C29.9211,24.7496695 30.14484,24.793725 30.358515,24.886785 C30.546285,24.96846 30.719535,25.08495 30.867375,25.232955 C30.99822,25.363635 31.10448,25.514115 31.18368,25.67697 L35.28624,33.88242 C35.296965,33.902715 35.30736,33.923175 35.317095,33.943965 L37.77609,38.86212 C38.18364,39.677055 37.85331,40.66821 37.03821,41.07576 C36.223275,41.48331 35.23212,41.15298 34.82457,40.33788 L32.80563,36.3 L26.595195,36.3 L24.57609,40.33788 C24.168705,41.15298 23.17755,41.48331 22.36245,41.07576 Z M31.15563,33 L29.70033,30.0894 L28.245195,33 L31.15563,33 Z M41.25033,41.25 C42.161625,41.25 42.90033,40.511295 42.90033,39.6 L42.90033,26.4 C42.90033,25.488705 42.161625,24.75 41.25033,24.75 C40.339035,24.75 39.60033,25.488705 39.60033,26.4 L39.60033,39.6 C39.60033,40.511295 40.339035,41.25 41.25033,41.25 Z" id="形状"></path>
            <path d="M31.35,8.25 C31.35,7.338738 32.088705,6.6 33,6.6 C33.911295,6.6 34.65,7.338738 34.65,8.25 L34.65,13.2 C34.65,14.111295 33.911295,14.85 33,14.85 C32.088705,14.85 31.35,14.111295 31.35,13.2 L31.35,8.25 Z M31.35,52.8 C31.35,51.888705 32.088705,51.15 33,51.15 C33.911295,51.15 34.65,51.888705 34.65,52.8 L34.65,57.75 C34.65,58.661295 33.911295,59.4 33,59.4 C32.088705,59.4 31.35,58.661295 31.35,57.75 L31.35,52.8 Z M8.25,34.65 C7.338738,34.65 6.6,33.911295 6.6,33 C6.6,32.088705 7.338738,31.35 8.25,31.35 L13.2,31.35 C14.111295,31.35 14.85,32.088705 14.85,33 C14.85,33.911295 14.111295,34.65 13.2,34.65 L8.25,34.65 Z M52.8,34.65 C51.888705,34.65 51.15,33.911295 51.15,33 C51.15,32.088705 51.888705,31.35 52.8,31.35 L57.75,31.35 C58.661295,31.35 59.4,32.088705 59.4,33 C59.4,33.911295 58.661295,34.65 57.75,34.65 L52.8,34.65 Z" id="形状"></path>
        </g>
    </g>
</svg>