<svg xmlns="http://www.w3.org/2000/svg" id="Layer_1" data-name="Layer 1" viewBox="0 0 400 305"><path d="M134.5 99.4H71.3c-2 0-2.5.7-2.5 2.5 0 2.9 0 5.9-.2 8.8-1 9.5-9 16.3-18.4 16-9.3-.3-17-8-17.1-17.4-.1-20.2 0-40.5 0-60.7 0-3.8 1.7-5.3 5.3-5.4 2.8 0 6.5 1.3 8-.7 1.4-1.8.5-5.4.5-8.2 0-6.4 0-6.4-6.6-6.4H9c-2.8 0-5.4-.5-5.5-3.8-.1-3.5 2.5-4.3 5.5-4.3h34.5c2 0 3.6.2 3.5-2.8 0-2.2 1.4-3.8 3.8-3.8 2.6 0 4.1 1.5 4 4-.1 2.8 1.5 2.5 3.3 2.5h36.1c2.4.2 4.1 1.4 4.1 4 0 2.8-1.7 4-4.4 4H62.2q-7.3 0-7.3 7.3t7.8 8c4.9 0 6.1 1.2 6.1 6.2v13.3c0 2 .6 2.8 2.7 2.8h50.2c2.2 0 2.5-1 2.9-2.8 4.3-20.8 20.9-35.3 42.1-35.7 22.3-.4 44.7-.4 67 0 20.6.4 37.7 15.1 41.6 35.2.6 2.9 1.7 3.3 4.2 3.3 16.1 0 32.1-.1 48.2 0 2.8 0 3.8-.7 3.6-3.6-.2-4.4 0-8.8 0-13.3 0-3.6 1.5-5.5 5.3-5.5 2.8 0 6.4 1.2 8.1-.6 1.8-2 .5-5.6.6-8.5 0-6.2 0-6.2-6-6.2h-32.1c-2.9 0-5.3-.6-5.3-4 0-3.3 2.4-4.1 5.2-4.1H342c2.1 0 3.5 0 3.4-2.9-.1-2.3 1.5-3.7 3.9-3.7s4 1.5 3.9 3.7c0 2.8 1.3 2.9 3.4 2.8H392.3c2.6.2 4.5 1.4 4.4 4.2 0 2.8-1.9 3.9-4.6 3.9-11.6 0-23.3.1-34.9 0-3.3 0-4.3 1-3.8 4v1.2c0 3.2-1 7.2.5 9.4s5.7.5 8.7.8c3 .3 4.6 1.8 4.6 4.9v61.5c0 9.2-7.9 16.7-17 17.1-9.3.4-17.3-6.3-18.4-15.5-.2-1.6-.3-3.2-.3-4.8q0-7-7.2-7h-56.2c-.3 0-.5 0-1 .1.4 1.5 1.9 1.8 2.9 2.4 36.3 23 57.6 55.7 63.6 98.4.4 2.6 1.4 3.4 3.8 3.2 3.2-.2 6.4-.1 9.6 0 8.1.3 13.9 5.9 13.9 13.6 0 7.7-5.5 13.5-13.7 13.8-8.6.2-17.1.3-25.7 0-9.1-.2-14-5.9-14.4-15.7-1.6-40.1-19.9-70.3-53.9-91.2-3.3-2.1-5.2-2.1-6.5 2-.7 2.3-2 4.4-3.1 6.5-3.3 5.7-8.2 9.1-14.8 9.8-3.2.3-6.4.5-9.6.2-3.9-.4-5.1.8-4.9 4.8.2 2.7 1 3.2 3.5 3.2 10.3 0 14.5 4.4 14.6 14.7V185c0 7.5-4.8 12.4-12.3 12.5-13.2.2-26.5.2-39.7 0-7.7 0-12.4-5-12.5-12.7v-21.3c0-8.4 4.7-13.1 13.2-13.3 5.1-.2 5-.2 4.8-5.4 0-2-.7-2.6-2.6-2.5-2.7.1-5.3 0-8 0-9.4 0-16-4.2-20-12.7-4-8.4-4.1-8.6-12-3.3-31.6 21-48.5 50.5-49.9 88.6-.4 10.7-5.5 15.9-16.3 15.9-8 0-16.1.2-24.1 0-6.9-.2-12.3-5-13.3-11.2-1.1-6.6 2.4-12.8 8.5-15.2 2.1-.9 4.4-1 6.7-1.1 3.7 0 8.3 1.1 10.9-.7 2.6-1.7 1.5-6.7 2.2-10.2 8.2-40 29.6-70.6 64.4-91.7.4-.3.9-.6 2.2-1.5Zm65.1-8.1H259c6.1 0 9.2-3 9.2-9.1V70.5c-.3-19.6-15.5-35.3-35.1-35.6-22.1-.3-44.1-.3-66.2 0-17.5.2-31.5 12.7-34.6 30-1 5.5-.5 11-.5 16.4 0 7.1 2.8 9.9 10 9.9h57.8Zm-49.1 8.2c-.6 1.2.2 1.9.6 2.7l11.4 24.3c2.5 5.3 6.5 7.9 12.4 7.8H225c6 0 10.1-2.6 12.6-8.1 3.7-8 7.5-16 11.2-24 .4-.9 1.5-1.7.6-2.9h-98.9ZM65.9 222.9h10.8c6.6 0 8-1.7 8.3-8.4 1.8-42.4 21-74.7 57-96.9 5.6-3.5 5.4-3.2 3.1-9.2-1.6-4-3.2-4-6.5-2C100.4 128.8 78.9 162 74 206c-.5 4.7-1.2 5.4-6 5.4H54c-4.3 0-6.7 2.3-6.6 5.9 0 3.4 2.3 5.4 6.5 5.5 4 .1 8 0 12 0Zm268.1 0v-.1h12c4.2 0 6.5-2 6.6-5.4.1-3.6-2.3-5.7-6.6-5.8h-14c-4.7 0-5.5-.9-6-5.5-4.7-42.4-25-75-61.2-97.6-7.9-4.9-7.9-4.8-11.7 3.5-.8 1.9-.6 2.7 1.2 3.6 6.9 3.6 13.4 7.9 19.2 13 26.4 22.7 40.3 51.4 41.4 86.3.2 6.4 1.8 8 8.2 8.1h10.8ZM41 81.3v26.5c0 6.4 4.1 10.9 9.8 10.9 5.6 0 9.7-4.2 9.8-10.5.1-18.1 0-36.1 0-54.2 0-2.5-1-2.9-3.1-2.8-4.4.1-8.8.2-13.2 0-3-.2-3.5 1-3.4 3.6.2 8.8 0 17.7 0 26.5Zm318 .4V54.4c0-2.3-.3-3.4-3-3.3-4.5.2-9.1.1-13.6 0-2.1 0-3.1.3-3.1 2.8v54.2c0 6.3 4.2 10.5 9.8 10.5 5.7 0 9.8-4.4 9.8-10.8V81.7Zm-159 108h18.8c3.6 0 5.5-1.4 5.4-5.2-.1-7-.1-13.9 0-20.9 0-3.6-1.6-5.2-5-5.2h-38.5c-3.4 0-5.1 1.7-5 5.3.1 6.8 0 13.6 0 20.5 0 4.5.9 5.5 5.4 5.5h18.8Zm-74.3-98.4c-2.5-5.1-2-10.1-1.9-15 0-2.3-.7-2.9-2.9-2.9H71.6c-1.9 0-2.9.4-2.9 2.6.2 4.3.1 8.6 0 12.8 0 2 .7 2.5 2.6 2.5h54.4Zm148.6 0h54.4c1.9 0 2.6-.5 2.5-2.5-.1-4.3-.2-8.6 0-12.8 0-2.3-.9-2.6-2.9-2.6H279c-2.3 0-3 .6-2.9 2.9.1 4.9.6 9.9-1.9 15Zm-74.5 59.1h4.4c.9 0 1.7 0 2.1-1.3 1.3-4.4-.2-6.6-4.8-6.6h-3.6c-2.8-.3-4.3.2-4.3 3.8 0 3.2.8 4.7 4.2 4.2.6-.1 1.3 0 2 0Zm12.5 23.7c0 6.8-5.3 12.2-12.1 12.4-7 .1-12.5-5.3-12.5-12.3 0-6.8 5.3-12.3 12.1-12.4 6.9-.1 12.5 5.4 12.5 12.3Zm-8 .1c-.1-2.7-1.5-4.3-4.2-4.3s-4.3 1.5-4.3 4.2 1.4 4.2 4.2 4.3c2.7 0 4.1-1.5 4.3-4.1Z" style="fill:#fff;stroke-width:0"></path><path d="M199.3 291.7c-19.4-.3-36.7-7.1-51.3-20.8-1.6-1.5-3.2-3-2.1-5.5 1.3-3.1 4.4-3.4 7.5-.4 8.5 8.1 18.4 13.8 29.8 16.6 23.4 5.6 44.2.4 62.2-15.6.9-.8 1.7-1.7 2.7-2.4 1.8-1.2 3.6-1 5.1.6 1.5 1.6 1.5 3.4.3 5.1-.5.8-1.3 1.4-1.9 2-14.6 13.5-31.8 20.3-52.2 20.5Zm30.8-43c2.1-2 3.3-4.2 1.1-6.6-2.2-2.4-4.5-1.2-6.6.6-15.5 13.1-33.8 13.1-49.1 0-2.3-1.9-4.6-3.3-6.9-.5-2.1 2.5-.6 4.7 1.4 6.5 8.2 7.4 17.7 11.3 27.5 11.6 12 .7 24.6-4.1 32.6-11.8Zm-36.5-32.3c0 3.4 2.9 6.3 6.3 6.4 3.6 0 6.6-3 6.5-6.6-.1-3.4-3.1-6.2-6.5-6.2s-6.3 2.9-6.3 6.4Z" style="stroke-width:0;fill:#1e90ff"></path></svg>