<svg xmlns="http://www.w3.org/2000/svg" id="Layer_1" x="0" y="0" viewBox="0 0 500 393.4" style="enable-background:new 0 0 500 393.4" xml:space="preserve"><style>.st0{fill:#fff}</style><path class="st0" d="M326.6 154.2v62.2c0 1.8-.5 3-1.8 4.3-15.2 15.1-30.3 30.3-45.4 45.5-1.3 1.3-2.6 1.8-4.4 1.8H150.9c-3.4 0-3.6-.2-3.6-3.7V140c0-1.8.5-3.1 1.8-4.4 15.2-15.1 30.3-30.3 45.4-45.5 1.2-1.2 2.4-1.7 4.1-1.7h124.5c3.3 0 3.5.3 3.5 3.6v62.4-.2zm-175.3 46.5v58.5c0 1-.4 2.1 1.3 2.1.7 0 1.3.7 1.3 1.3 0 1.4.9 1.2 1.8 1.2H273c1.4 0 1.8-.3 1.8-1.8v-40.1c0-1.4-.2-2.2-1.8-2-1.2.1-2.1-.6-2.1-2 0-1.3.9-2.1 2.1-2 1.7.2 1.8-.6 1.8-2V142c0-1.4-.2-2-1.9-1.9h-72c-1.3 0-2 .1-1.9 1.7.1 1.2-.6 2.2-1.9 2.2-1.5 0-2.2-.9-2.1-2.2.2-1.6-.6-1.7-1.9-1.7H153c-1.6 0-1.9.4-1.9 1.9v58.7h.2zM319.7 92.8c-.1-.2-.3-.4-.4-.5H200.8c-1.3 0-1.7.3-1.7 1.7 0 2-1.7 3-3.1 1.8-1-.9-1.4-.2-1.9.3-12.9 12.9-25.8 25.8-38.6 38.7-.3.3-.9.5-.8 1.2h119.8c1.1 0 1.9-.4 2.7-1.2 13.7-13.8 27.5-27.6 41.3-41.3.3-.3.9-.5 1.3-.8l-.1.1zm-40.9 167.7h.5l39.9-39.9c.5-.5.5-.7 0-1.3-1.2-1.5-.4-3.4 1.5-3.3 2.1.1 1.9-.9 1.9-2.3V94.9c-.8.9-1.1 1.3-1.5 1.7-13.6 13.6-27.2 27.3-40.9 40.9-1.1 1-1.5 2.1-1.5 3.6v119.5l.1-.1zm-3.8 8.6H150.9c-4.1 0-4.9-.8-4.9-5V139.8c0-2.2.7-3.8 2.2-5.3 15.2-15.1 30.3-30.3 45.4-45.5 1.5-1.5 3-2.1 5-2.1H323c4 0 4.8.8 4.8 4.9v124.5c0 2.1-.7 3.7-2.2 5.2-15.2 15.1-30.3 30.3-45.4 45.5-1.5 1.5-3.1 2.2-5.3 2.2l.1-.1zm-86.7-2.5H275c1.4.1 2.5-.4 3.5-1.4 15.1-15.2 30.2-30.4 45.4-45.5 1-1 1.4-1.9 1.4-3.4V91.8c0-.5 0-1.9-.2-2.2-.2-.1-1.6-.1-2.1-.1H198.6c-1.3 0-2.2.4-3.2 1.4-15.1 15.2-30.2 30.4-45.4 45.5-1.1 1.1-1.5 2-1.5 3.5v124.3c0 .6 0 2 .2 2.3.2.1 1.5.1 2.2.1h37.4zm84.7-1.5H155.7c-.8 0-1.7 0-2.4-.6-.5-.4-.7-1.1-.7-1.9-.9 0-1.5-.3-2-.8-.7-.7-.6-1.7-.6-2.3V142c0-.9 0-1.8.8-2.5.7-.7 1.6-.8 2.4-.7h40.1c.8 0 1.9 0 2.6.8.7.8.6 1.9.6 2.3 0 .3 0 .6.1.7 0 .1.3.2.6.1.2 0 .4 0 .6-.2.1-.1.1-.3.1-.6 0-.7 0-1.6.6-2.3.7-.8 1.8-.8 2.6-.8h72c.8 0 1.7 0 2.4.8.7.7.7 1.6.7 2.5V214c0 .8 0 1.9-.8 2.7-.8.7-2 .6-2.4.6-.1 0-.4 0-.5.1s-.2.3-.2.6 0 .5.2.6c.1 0 .3.1.6.1.4 0 1.6-.1 2.4.6.8.7.8 1.7.8 2.7v40.1c0 .8 0 1.7-.7 2.3-.6.6-1.5.7-2.4.7h-.2zm-79.2-2.6h79.7V221h-.4c-1 0-1.9-.2-2.5-.8s-1-1.5-1-2.5.4-1.9 1-2.5c.7-.6 1.5-.9 2.5-.8h.5V141.1h-73.1v.3c.1 1-.1 1.9-.7 2.6-.6.7-1.4 1-2.4 1.1-1.4 0-2.1-.5-2.6-1-.6-.7-.9-1.6-.8-2.7v-.4c0 .1-.5.1-.6.1h-40.7v118.5c1.5.1 2.6 1.3 2.6 2.6h38.6l-.1.3zm85.9-.7h-1.9l-.3-1.3V141c0-1.8.6-3.2 1.8-4.5 11.8-11.8 23.6-23.5 35.3-35.3l5.5-5.6c.2-.2.4-.5.7-.8l2.9-3.4V213.7c0 1.1 0 2.2-.8 2.9-.7.7-1.8.7-2.5.7-.2 0-.5 0-.6.2 0 .2 0 .6.2 1 .6.8 1.1 1.8-.1 3l-28.6 28.6-11.7 11.7h.1zm41.6-163.6-4.8 4.9c-11.8 11.8-23.5 23.6-35.3 35.3-.8.8-1.1 1.5-1.1 2.7v116.8l9.6-9.6 28.4-28.4c-.8-1.3-.9-2.5-.3-3.6s1.7-1.7 3.1-1.6h.6s-.1-.4-.1-.7V98.1l-.1.1zm-46.9 39.2H153.5l-.2-1.1c-.2-1.3.6-2 1-2.2L189.4 99l3.7-3.7c.6-.6 1.8-2 3.6-.4.2.2.4.2.5.1.2-.1.5-.5.4-1 0-.8 0-1.6.7-2.3.6-.6 1.5-.6 2.3-.7h118.9l.8.8.9 1.1-1.1 1c-.2 0-.3.2-.5.3-.2.1-.4.2-.5.3-13.8 13.8-27.5 27.5-41.2 41.3-1.1 1.1-2.2 1.5-3.6 1.5l.1.1zm-117.2-2.6h117.2c.8 0 1.2-.2 1.8-.8 13.5-13.5 26.9-27 40.4-40.5H200.3v.4c0 1.5-.7 2.8-1.9 3.3-1.1.5-2.3.3-3.2-.5l-3.9 3.9c-11.3 11.4-22.7 22.7-34.1 34.2zm41.9 51.2c-.1-1.2-.9-1.9-2-1.9-1.2 0-1.9.8-2 2v4.1c0 1.2.8 1.9 2 1.9s1.9-.8 2-2V186zm-2 7.3c-1.8 0-3.1-1.2-3.2-3.1V186c0-1.9 1.4-3.2 3.2-3.2s3.1 1.2 3.3 3.1V190.2c-.2 1.9-1.4 3.1-3.2 3.1h-.1zm0-8c-.3 0-.7 0-.7.8v4c0 .6.3.7.7.7.3 0 .7 0 .7-.8v-3.8c0-.7-.4-.8-.7-.9zm-2 20.7c0 1.2.7 2 1.9 2 1.3 0 2-.8 2.1-2.1v-2.1c0-1.6.3-3.5-2-3.8-1.5-.2-2.1 1-2.1 3.8v2.1l.1.1zm2 3.3c-1.8 0-3.1-1.3-3.2-3.2v-2.2c0-2.3.4-3.7 1.3-4.5.4-.4 1.1-.8 2.2-.6 3.1.4 3.1 3.1 3.1 4.5v2.8c-.1 2-1.4 3.3-3.3 3.3l-.1-.1zm-.1-8c-.2 0-.6.3-.6 2.6V206c0 .9.4.8.8.8.3 0 .7 0 .7-.9v-2.6c0-1.7-.1-1.8-.9-1.9v-.1zm14 14.6h-1.9c-1.2 0-2 .7-2 1.9 0 1.3.8 2 2 2.1h4.1c1.1 0 1.8-.8 1.8-1.9 0-1.2-.7-2-1.9-2.1H211zm-.2 5.4H209c-2 0-3.3-1.5-3.3-3.4 0-1.8 1.3-3 3.2-3.2H213.2c1.9.2 3 1.6 3 3.4 0 1.8-1.3 3-3.1 3.1h-2.4l.1.1zm-1-4.1h-.6c-.8 0-.8.4-.8.7 0 .4 0 .7.8.8h4c.4 0 .6-.1.6-.7 0-.4 0-.7-.7-.8h-3.3zm19.4 2.7c1.2-.1 1.7-.9 1.8-2 0-1-.6-1.9-1.6-1.9-1.6-.1-3.2-.1-4.8 0-1 0-1.6.9-1.6 1.9 0 1.1.6 1.8 1.8 2h4.4zm-.9 1.3h-3.7c-1.8-.2-2.9-1.4-2.9-3.2s1.1-3.1 2.7-3.2c1.7-.1 3.4-.2 5.1 0 1.6.1 2.8 1.5 2.7 3.2 0 1.8-1.2 3.1-2.9 3.2h-1zm-1.4-2.5h2.2c.3 0 .6-.1.6-.7 0-.2 0-.6-.4-.6-1.5-.1-3.1-.1-4.6 0-.3 0-.4.2-.4.6 0 .5.2.7.6.7h2zm-27.8-46.5v-1.9c0-1.3-.7-2.2-2-2.2s-2 .8-2.1 2.1v4.3c0 1.1.9 1.6 1.9 1.6s1.8-.5 2-1.5c.2-.7.1-1.5.2-2.3v-.1zm-2 5.1h-.1c-1.8 0-3-1.2-3.1-2.8 0-1.3-.1-2.7 0-4.4 0-1 .4-1.9 1-2.5s1.4-.9 2.4-.8c1.9 0 3.1 1.4 3.2 3.4v2.8c0 .6 0 1.2-.2 1.8-.3 1.5-1.6 2.5-3.2 2.5zm0-7.9c-.2 0-.4 0-.5.1s-.2.4-.2.7v4.1c0 .2 0 .4.6.4.5 0 .6-.2.7-.5 0-.4 0-.8.1-1.3v-2.7c0-1-.4-1-.7-1v.2zm45.8 50.5h2.3c1.2-.1 1.7-.9 1.7-2 0-1-.6-1.8-1.6-1.9-1.6-.1-3.2-.1-4.8 0-1 0-1.6.9-1.5 2 0 1 .6 1.7 1.6 1.9.8.1 1.5.1 2.3.1v-.1zm-.1 1.4h-.7c-.6 0-1.2 0-1.7-.2-1.6-.2-2.7-1.4-2.7-3.1 0-1.8 1-3.1 2.7-3.3 1.6-.2 3.3-.2 5 0 1.6.1 2.8 1.4 2.8 3.2s-1.1 3.1-2.8 3.3h-2.5l-.1.1zm-1.2-1.3h1.3-1.3zm1.4-2.8c-.9 0-1.7 0-2.5.1-.3 0-.4.2-.4.6 0 .5.2.6.5.7H244.9c.3 0 .6 0 .6-.7 0-.6-.3-.6-.4-.6h-2.2l.1-.1zm18.1 2.7c1.1-.1 1.6-.8 1.7-1.8 0-1.1-.5-2-1.6-2.1-1.6-.1-3.2-.1-4.8 0-1 0-1.5.9-1.5 2 0 1 .6 1.7 1.6 1.9.8.1 1.5.1 2.2.1.9 0 1.6 0 2.4-.1zm-2.4 1.4h-.7c-.6 0-1.1 0-1.7-.2-1.6-.2-2.7-1.4-2.7-3.1 0-1.8 1-3.1 2.7-3.3 1.7-.2 3.4-.2 5.1 0 1.7.1 2.9 1.5 2.8 3.4 0 1.7-1.2 2.8-2.8 3h-2.5l-.2.2zm.3-4.1c-.8 0-1.7 0-2.5.1-.2 0-.4.2-.4.6 0 .5.2.6.5.7.5 0 1 0 1.5.1h2.8c.3 0 .5 0 .5-.6 0-.7-.3-.7-.4-.7h-2.1l.1-.2zm-59.9-61v-1.9c0-1.3-.7-2.1-2-2.2-1.3 0-2 .8-2 2.1v4.1c0 1.1.8 1.8 1.9 1.8 1.1 0 1.8-.6 2-1.7.1-.7 0-1.4 0-2.1l.1-.1zm-2 5.2c-1.8 0-3.1-1.2-3.2-3v-4.2c0-2.1 1.3-3.3 3.3-3.4 1.9 0 3.2 1.3 3.3 3.4v4.3c-.3 1.7-1.5 2.8-3.2 2.8l-.2.1zm0-8c-.3 0-.7 0-.7.9v4c0 .3 0 .6.7.6.3 0 .6-.1.7-.6V154.5c0-1-.5-1-.8-.9l.1-.2zm-36 103.1c1.6-1.1 2.9-2.4 3.9-3.9.5-.7.2-1.5-.4-2.1-.6-.7-1.5-1-2.3-.4-1.4 1-2.7 2.2-3.7 3.7-.8 1.2.2 2.9 1.8 3 .1 0 .4 0 .7-.3zm-.6 1.5c-1.3 0-2.4-.8-3-1.9-.5-1-.4-2.2.2-3 1-1.5 2.4-2.9 4-4 1.2-.9 2.7-.7 3.9.5 1.1 1.1 1.3 2.6.5 3.7-1.2 1.7-2.6 3.1-4.3 4.3-.4.2-.7.3-.9.4h-.4zm2.8-6.9h-.2c-1.4 1-2.5 2.1-3.4 3.3-.1.2 0 .3 0 .5s.3.4.6.5c1.4-.9 2.6-2.1 3.6-3.5 0-.1-.1-.4-.2-.5-.2-.2-.4-.3-.4-.3zm29-30.3c0 1.4 1.5 2.5 2.7 1.8 1.6-.9 3-2.3 3.9-3.9.7-1.2-.3-2.7-1.7-2.8-1.2 0-4.9 3.6-4.9 4.9zm1.9 3.3c-.5 0-1.1-.1-1.6-.4-1-.6-1.7-1.7-1.7-2.9 0-1.3 1.6-3 2.5-3.9 1.5-1.5 2.8-2.2 3.7-2.2 1.2 0 2.2.7 2.8 1.7.5 1 .5 2.1 0 3-1.1 1.9-2.6 3.4-4.4 4.4-.4.2-.9.4-1.4.4l.1-.1zm3-6.9c-.9.3-3.4 2.8-3.6 3.6 0 .1.2.4.4.6.1 0 .3.1.4 0 1.4-.8 2.6-1.9 3.4-3.4v-.4c0-.2-.3-.4-.6-.4zm-15.1 16.6c.8.5 1.5.3 2.2-.2 1.1-1 2.1-2 3-3 .8-.9.8-1.9-.1-2.8-.9-.9-1.9-.8-2.8 0-1 .9-1.9 1.9-2.9 2.9-.4.4-.6.9-.6 1.5.1.7.5 1.3 1.1 1.7l.1-.1zm.9 1.6c-.5 0-1.1-.1-1.6-.4-.9-.5-1.5-1.4-1.8-2.5v-.2c0-.9.3-1.7.9-2.4 1-1 1.9-2 2.9-2.9 1.4-1.3 3.2-1.3 4.5 0 1.4 1.3 1.5 3.1.2 4.5-1 1.1-2 2.1-3.1 3.1-.6.6-1.3.8-2.1.8h.1zm-.8-3.4c.1.4.3.6.5.7.3.2.4.1.7 0 1-.9 2-1.9 3-2.9.3-.3.4-.6 0-1-.4-.3-.6-.4-1 0-1 .9-1.9 1.9-2.8 2.8-.1.1-.2.3-.2.4h-.2zm-6.6 6.9c-.6-.4-1.3-.6-2 0-1.4 1.1-2.6 2.3-3.7 3.7-.5.7-.3 1.4 0 2 .4.6 1 1 1.8.9 1.1 0 4.7-3.7 4.7-4.9 0-.7-.4-1.3-1-1.7h.2zm-3.8 7.8c-1.1 0-2.1-.5-2.8-1.5-.8-1.2-.8-2.5 0-3.5 1.1-1.4 2.4-2.7 3.9-3.9 1-.8 2.3-.8 3.5 0 1 .6 1.5 1.6 1.6 2.7v.1c0 1.8-4.2 6-6 6.1h-.2zm2.7-6.9h-.1c-1.3 1-2.5 2.2-3.4 3.4 0 0-.1.1.1.5s.5.4.7.4c.7-.2 3.1-2.7 3.5-3.6 0-.2-.2-.4-.4-.6-.2-.1-.3-.2-.4-.2v.1zm20.7-113.3c.1 1 .9 1.6 1.9 1.6s1.8-.5 2-1.5c.2-1.7.3-3.4 0-5-.2-1-1-1.4-2-1.4-.9 0-1.6.5-1.8 1.5-.1.8-.1 1.5-.1 2.3v2.5zm1.9 2.9c-1.7 0-2.9-1.1-3.1-2.7 0-.6-.1-1.3-.1-1.9v-1.6c0-.6 0-1.2.1-1.8.2-1.5 1.4-2.5 3-2.6 1.8 0 3.1.9 3.4 2.4.3 1.7.3 3.5 0 5.4-.2 1.6-1.5 2.6-3.2 2.6l-.1.2zm-.8-5.4v.7c0 .5 0 1.1.1 1.6 0 .3.1.5.6.5.6 0 .6-.3.7-.4.2-1.7.2-3.2 0-4.6 0-.2 0-.4-.7-.3-.5 0-.5.2-.6.4 0 .5 0 1-.1 1.5v.6zm2.8-15.8v-2.3c-.2-1.1-.9-1.7-2-1.7s-1.9.6-1.9 1.8v4.5c0 1 .7 1.6 1.8 1.7 1.1 0 1.9-.6 2.1-1.6.2-.7 0-1.5.1-2.3l-.1-.1zm-2 5.2h-.3c-1.7-.1-2.9-1.3-3-2.9 0-1.4-.1-3 0-4.6 0-1.8 1.3-2.9 3.2-3 1.8 0 3.1 1 3.3 2.8v3.2c0 .6 0 1.2-.2 1.9-.4 1.6-1.6 2.6-3.1 2.6h.1zm0-7.9c-.6 0-.7.3-.7.5v4.3c0 .3 0 .5.6.5.3 0 .6 0 .7-.6V105.9c0-.4-.2-.6-.7-.6l.1.2zm93.5 114.4h2.3c1.1-.1 1.7-.8 1.7-2 0-1-.5-1.8-1.5-1.9-1.6-.1-3.2-.1-4.8 0-1 0-1.6.9-1.6 1.9 0 1.1.6 1.8 1.8 2 .7 0 1.4 0 2.1.1v-.1zm0 1.4h-.6c-.5 0-1.1 0-1.6-.1-1.8-.2-2.9-1.4-2.9-3.2s1.1-3.1 2.7-3.2c1.6-.1 3.3-.1 5 0 1.6.1 2.7 1.5 2.7 3.2 0 1.8-1.1 3.1-2.9 3.2h-2.5l.1.1zm-1.3-1.3h1.3-1.3zm1.5-2.8c-.8 0-1.6 0-2.3.1-.1 0-.4 0-.4.6 0 .5.1.6.6.7h4.1c.4 0 .6 0 .6-.7 0-.6-.3-.6-.4-.6h-2.3l.1-.1zm15.9-1.3h-1.9c-1.2.1-2 .7-2 1.9 0 1.4.8 2 2 2.1h4.1c1.1 0 1.8-.7 1.8-1.9s-.6-1.9-1.8-2.1h-2.2zm-.2 5.4h-1.9c-2 0-3.3-1.4-3.2-3.4 0-1.8 1.3-3 3.2-3.2h4.4c1.9.2 3 1.5 3 3.4 0 1.8-1.2 3-3 3.1h-2.4l-.1.1zm-1.1-4.1h-.5c-.8 0-.8.4-.9.7 0 .5 0 .7.8.8h3.9c.5 0 .6-.2.6-.7s0-.7-.7-.8h-3.3.1z"></path><path class="st0" d="M274.9 271.2h-4.8l.1-.1H150.9c-5.2 0-6.9-1.7-6.9-7V139.8c0-2.7.9-4.8 2.8-6.7 15.2-15.1 30.6-30.6 45.4-45.5 1.9-1.9 3.8-2.7 6.4-2.7H323c5.1 0 6.8 1.7 6.8 6.9v124.5c0 2.6-.9 4.7-2.8 6.6-15.3 15.2-30.6 30.6-45.4 45.5-1.9 1.9-4 2.8-6.7 2.8zm-124.3-5.4zm-.1-1.2h.5c0-.1-.1-.2-.1-.3-.1 0-.2-.1-.4-.1v.4zm46.1-4.1h74.9v-37.7c-.9-.2-1.7-.6-2.3-1.2-1-1-1.6-2.4-1.6-3.9s.6-2.9 1.6-3.9l.1-.1c.7-.6 1.5-1 2.3-1.2v-69.4h-69.2c-.2.8-.5 1.6-1.1 2.2-.9 1-2.1 1.6-3.7 1.8h-.2c-2.2 0-3.3-.9-4-1.6l-.1-.1c-.6-.7-1-1.4-1.2-2.3h-37.4v115c.9.5 1.7 1.2 2.1 2.1h39.9l-.1.3zM319.4 103l-1.5 1.5-11.8 11.8-23.5 23.5c-.4.4-.5.6-.5 1.3v112l33.6-33.6c-.6-1.7-.2-3.2.3-4.1.7-1.3 1.9-2.2 3.4-2.5V103zM162 132.8H274.6l.2-.2 20.2-20.2 16.8-16.8H202.1c-.4 1.6-1.5 2.9-2.9 3.5-1.2.5-2.5.6-3.6.1l-2.8 2.8c-5.6 5.7-11.3 11.4-17 17-4.7 4.6-9.2 9.2-13.8 13.8zM160.9 260h-.4c-1.9 0-3.8-1.1-4.8-2.9-.9-1.7-.7-3.7.3-5.1 1.1-1.7 2.7-3.3 4.5-4.5 1.9-1.4 4.5-1.2 6.4.7 1.8 1.8 2.1 4.4.7 6.3-1.3 1.9-2.9 3.4-4.8 4.8l-.3.2c-.3.1-.5.2-.7.3-.1 0-.1 0-.2.1l-.4.2-.3-.1zm11.2-11.3h-.3c-1.8 0-3.4-.9-4.4-2.4-1.3-2-1.3-4.2.1-5.9.8-1 1.6-1.9 2.5-2.8l-1.2-.8h2.1c.3-.2.5-.4.8-.7 1.7-1.3 3.9-1.4 5.9-.1 1.1.7 2 1.8 2.3 3.2l2.4 1.6H180c-.4 3-5.1 7.7-7.9 7.9zm10.9-11.3h-.1c-.7 0-1.6-.1-2.5-.7-1.3-.7-2.2-2-2.7-3.7l-.1-.3v-.5c0-1.4.5-2.6 1.4-3.7l.1-.1c.3-.3.6-.7 1-1 .6-.7 1.3-1.3 2-2 2.1-2 5.2-2 7.3.1l.3.3 1.1-1.1c-1.1-1-1.8-2.5-1.8-4 0-2 1.6-3.9 3.1-5.3 1.8-1.8 3.6-2.8 5.1-2.8 1.8 0 3.5 1 4.5 2.7l.1.1c.8 1.6.8 3.4 0 4.9-1.3 2.2-3.1 4-5.2 5.2-.9.5-1.6.7-2.4.7H190c1.6 2 1.5 4.7-.3 6.7-1 1.1-2.1 2.2-3.2 3.2-1 .8-2.1 1.3-3.5 1.3zm124.3-14.1h-2.7c-1.5 0-2.9-.6-3.8-1.6-1-1-1.4-2.4-1.4-3.9 0-2.8 2-4.8 5-5.1h4.8c2.9.3 4.8 2.4 4.8 5.4 0 2.8-2 4.9-4.9 5.1h-.1l-1.7.1zm-11.9 0H290c-.6 0-1.2 0-1.9-.1-2.8-.3-4.6-2.4-4.6-5.2 0-2.8 1.9-5 4.6-5.2 1.7-.1 3.5-.1 5.2 0 2.6.2 4.6 2.4 4.6 5.2 0 2.2-1.2 4-3 4.8l.5.5zm-35.9 0H258c-.6 0-1.3 0-2.1-.2-2.5-.4-4.3-2.5-4.3-5.1 0-2.8 1.8-5 4.5-5.3 1.8-.2 3.7-.2 5.5 0 2.8.2 4.7 2.5 4.6 5.4 0 2.6-1.9 4.6-4.6 4.9h-1.9l-.2.3zm-15.9 0h-1.5c-.6 0-1.4 0-2.2-.2-2.5-.4-4.2-2.5-4.2-5 0-2.8 1.8-5 4.5-5.3 1.7-.2 3.6-.2 5.4 0 2.7.2 4.6 2.4 4.6 5.2 0 2.8-1.9 5-4.6 5.3h-2zm-28 0H209c-3 0-5.3-2.3-5.3-5.4 0-2.8 2-4.9 5-5.2h4.7c2.9.3 4.8 2.5 4.8 5.4 0 2.1-1.2 3.9-3.1 4.7l.5.5zm13.8-.1h-5c-2.8-.3-4.7-2.4-4.7-5.2 0-2.8 1.9-5 4.6-5.2 1.8-.1 3.6-.2 5.4 0 2.7.2 4.6 2.5 4.5 5.2 0 2.9-2 5-4.8 5.2zm-32.2-11.8h-.8l-.2-.2c-2.4-.4-4.2-2.4-4.3-5V203.9c0-2 .2-4.4 1.9-6 1-1 2.4-1.4 3.9-1.1 3.2.4 4.8 2.6 4.8 6.5v2.9c-.2 3.1-2.3 5.2-5.3 5.2zm0-16.1h-.1c-2.9 0-5-2.1-5.2-5V186c0-3 2.2-5.2 5.2-5.2 2.9 0 5 2 5.3 4.9v4.7c-.3 2.9-2.4 4.9-5.2 4.9zm0-16h-.2c-2.8 0-4.9-2-5.1-4.7v-4.5c0-1.5.6-2.9 1.6-3.9s2.4-1.5 3.9-1.4c2.9 0 4.9 2.2 5.1 5.3v2.9c0 .6 0 1.5-.3 2.3-.5 2.4-2.5 4-5 4zm.4-15.9h-.5c-2.9 0-5-2.1-5.2-4.9v-4.3c0-3.1 2-5.2 5.2-5.4h.1c3 0 5.1 2.2 5.3 5.3v4.8c-.4 2.5-2.2 4.2-4.7 4.4l-.2.1zm.7-32h-1.2c-2.7 0-4.8-1.8-5.1-4.5v-1c0-.4-.1-.8-.1-1.1v-1.6c0-.6 0-1.4.1-2.1.3-2.4 2.3-4.1 4.8-4.3h.1c2.8 0 4.9 1.6 5.4 4 .3 2 .3 4 0 6.1-.3 2.1-1.8 3.7-3.9 4.1l-.1.4zm-1.2-16h-.4c-2.7-.2-4.7-2.1-4.9-4.8v-4.8c0-2.8 2.1-4.8 5.1-4.9h.1c2.9 0 5 1.8 5.3 4.6V108.9c0 .7 0 1.5-.3 2.4-.6 2.5-2.5 4.1-4.9 4.1z"></path><path d="M294.6 140.1c0 10.9-8.9 19.9-19.9 19.9s-19.9-8.9-19.9-19.9 8.9-19.9 19.9-19.9 19.9 8.9 19.9 19.9zm44.9-47.9c0-10.9-8.9-19.9-19.9-19.9s-19.9 8.9-19.9 19.9 8.9 19.9 19.9 19.9 19.9-8.9 19.9-19.9zM199.1 68.4c-10.9 0-19.9 8.9-19.9 19.9s8.9 19.9 19.9 19.9S219 99.3 219 88.3s-8.9-19.9-19.9-19.9zm-2 124.5c-10.9 0-19.9 8.9-19.9 19.9s8.9 19.9 19.9 19.9 19.9-8.9 19.9-19.9-8.9-19.9-19.9-19.9zm-49.8 47.8c-10.9 0-19.9 8.9-19.9 19.9 0 11 8.9 19.9 19.9 19.9s19.9-8.9 19.9-19.9-8.9-19.9-19.9-19.9zm127.5 3.3c-10.9 0-19.9 8.9-19.9 19.9s8.9 19.9 19.9 19.9 19.9-8.9 19.9-19.9-8.9-19.9-19.9-19.9zm51.8-51.1c-10.9 0-19.9 8.9-19.9 19.9s8.9 19.9 19.9 19.9 19.9-8.9 19.9-19.9-8.9-19.9-19.9-19.9zm-179.3-76.6c-10.9 0-19.9 8.9-19.9 19.9s8.9 19.9 19.9 19.9 19.9-8.9 19.9-19.9-8.9-19.9-19.9-19.9z" style="fill:#121212"></path><path d="M274.8 287.5c-13.1 0-23.7-10.6-23.7-23.7s10.6-23.7 23.7-23.7 23.7 10.6 23.7 23.7-10.6 23.7-23.7 23.7zm0-39.7c-8.8 0-16 7.2-16 16s7.2 16 16 16 16-7.2 16-16-7.2-16-16-16zm-127.5 36.4c-13.1 0-23.7-10.6-23.7-23.7s10.6-23.7 23.7-23.7 23.7 10.6 23.7 23.7-10.6 23.7-23.7 23.7zm0-39.7c-8.8 0-16 7.2-16 16s7.2 16 16 16 16-7.2 16-16-7.2-16-16-16zm179.3-8.1c-13.1 0-23.7-10.6-23.7-23.7s10.6-23.7 23.7-23.7 23.7 10.6 23.7 23.7-10.6 23.7-23.7 23.7zm0-39.7c-8.8 0-16 7.2-16 16s7.2 16 16 16 16-7.2 16-16-7.2-16-16-16zm-129.5 39.7c-13.1 0-23.7-10.6-23.7-23.7S184 189 197.1 189s23.7 10.6 23.7 23.7-10.6 23.7-23.7 23.7zm0-39.7c-8.8 0-16 7.2-16 16s7.2 16 16 16 16-7.2 16-16-7.2-16-16-16zm77.7-32.9c-13.1 0-23.7-10.6-23.7-23.7s10.6-23.7 23.7-23.7 23.7 10.6 23.7 23.7-10.6 23.7-23.7 23.7zm0-39.7c-8.8 0-16 7.2-16 16s7.2 16 16 16 16-7.2 16-16-7.2-16-16-16zm-127.5 35.7c-13.1 0-23.7-10.6-23.7-23.7s10.6-23.7 23.7-23.7S171 123 171 136.1s-10.6 23.7-23.7 23.7zm0-39.7c-8.8 0-16 7.2-16 16s7.2 16 16 16 16-7.2 16-16-7.2-16-16-16zm172.4-4.2c-13.1 0-23.7-10.6-23.7-23.7s10.6-23.7 23.7-23.7 23.7 10.6 23.7 23.7-10.6 23.7-23.7 23.7zm0-39.7c-8.8 0-16 7.2-16 16s7.2 16 16 16 16-7.2 16-16-7.2-16-16-16zm-120.6 35.7c-13.1 0-23.7-10.6-23.7-23.7s10.6-23.7 23.7-23.7 23.7 10.6 23.7 23.7-10.6 23.7-23.7 23.7zm0-39.7c-8.8 0-16 7.2-16 16s7.2 16 16 16 16-7.2 16-16-7.2-16-16-16z" style="fill:#1e90ff"></path><path class="st0" d="M327.7 213.4c.2 0 .6.2.9.3l54.9 20.7c4.8 1.8 9.6 3.6 14.3 5.4.6.2 1.3.3 1.3 1.1 0 .7-.5 1-1 1.3-5.8 4.1-11.5 8.1-17.3 12.2-.6.4-.7.7-.1 1.2l12.6 12.6c1 1 1 1.3 0 2.4-3.3 3.3-6.5 6.6-9.8 9.8-1 1-1.3 1-2.3 0l-12.6-12.6c-.6-.6-.8-.6-1.3.1-3.9 5.7-7.9 11.3-11.8 16.9-.1.2-.2.3-.3.5-.3.5-.6 1-1.3.9-.6-.1-.8-.6-1-1.1-1.1-3-2.3-6.1-3.4-9.1-7.6-20.2-15.2-40.4-22.8-60.7-.4-1.2-.1-1.9 1-1.9z"></path><path class="st0" d="M495 350V3.9H5V350h239.9v29.2h-93c-2.8 0-5.1 2.3-5.1 5.1s2.3 5.1 5.1 5.1h196.2c2.8 0 5.1-2.3 5.1-5.1s-2.3-5.1-5.1-5.1h-93V350H495zM15.2 14.2h469.5v325.6H15.2V14.2z"></path></svg>