<svg xmlns="http://www.w3.org/2000/svg" id="Layer_1" data-name="Layer 1" viewBox="0 0 500 393.4"><path d="M93.9 129.3v-74h82.3c2.2 0 4-1.7 4-3.7s-1.8-3.7-4-3.7H86v81.4c0 2 1.8 3.7 4 3.7s4-1.7 4-3.7Zm2.6 0V57.9h79.7c3.6 0 6.5-2.8 6.5-6.3s-2.9-6.3-6.5-6.3H83.4v83.9c0 3.5 2.9 6.3 6.5 6.3s6.5-2.8 6.5-6.3Zm79.7-78.8c.8 0 1.4.5 1.4 1.1s-.6 1.1-1.4 1.1H91.4v76.5c0 1.2-2.8 1.2-2.8 0V50.5h87.6ZM90 219.7c-2.2 0-4 1.7-4 3.7v81.4h90.2c2.2 0 4-1.7 4-3.7s-1.8-3.7-4-3.7H93.9v-74c0-2-1.8-3.7-4-3.7Zm0-2.6c-3.6 0-6.5 2.8-6.5 6.3v83.9h92.8c3.6 0 6.5-2.8 6.5-6.3s-2.9-6.3-6.5-6.3H96.6v-71.4c0-3.5-2.9-6.3-6.5-6.3Zm-1.4 85.1v-78.8c0-1.2 2.8-1.2 2.8 0v76.5h84.8c.8 0 1.4.5 1.4 1.1s-.6 1.1-1.4 1.1H88.6Zm317.5-78.8v74h-82.3c-2.2 0-4 1.7-4 3.7s1.8 3.7 4 3.7H414v-81.4c0-2-1.8-3.7-4-3.7s-4 1.7-4 3.7Zm-2.6 0v71.4h-79.7c-3.6 0-6.5 2.8-6.5 6.3s2.9 6.3 6.5 6.3h92.8v-83.9c0-3.5-2.9-6.3-6.5-6.3s-6.5 2.8-6.5 6.3Zm-79.7 78.8c-.8 0-1.4-.5-1.4-1.1 0-.6.6-1.1 1.4-1.1h84.8v-76.5c0-1.2 2.8-1.2 2.8 0v78.8h-87.6ZM410 133c2.2 0 4-1.7 4-3.7V47.9h-90.2c-2.2 0-4 1.7-4 3.7s1.8 3.7 4 3.7h82.3v74c0 2 1.8 3.7 4 3.7Zm0 2.6c3.6 0 6.5-2.8 6.5-6.3v-84h-92.8c-3.6 0-6.5 2.8-6.5 6.3s2.9 6.3 6.5 6.3h79.7v71.4c0 3.5 2.9 6.3 6.5 6.3Zm1.4-85.1v78.8c0 1.2-2.8 1.2-2.8 0V52.7h-84.8c-.8 0-1.4-.5-1.4-1.1 0-.6.6-1.1 1.4-1.1h87.6Z" style="stroke-width:0;fill:#1e90ff"></path><path d="M338.2 156.6v61.1c0 1.7-.5 3-1.7 4.2-14.9 14.9-29.8 29.8-44.6 44.7-1.3 1.3-2.6 1.8-4.4 1.8h-122c-3.4 0-3.5-.2-3.6-3.6V142.5c0-1.8.5-3.1 1.8-4.4 14.9-14.9 29.8-29.8 44.6-44.7 1.2-1.2 2.3-1.7 4-1.7h122.4c3.2 0 3.5.2 3.5 3.5v61.3Zm-172.4 45.7v57.5c0 .9-.4 2.1 1.3 2.1.6 0 1.2.7 1.2 1.3 0 1.4.9 1.2 1.8 1.2h115.4c1.4 0 1.8-.3 1.8-1.8v-39.5c0-1.4-.2-2.1-1.8-2-1.2.1-2.1-.6-2.1-1.9 0-1.3.9-2.1 2.1-1.9 1.7.2 1.8-.6 1.8-2v-70.7c0-1.4-.2-1.9-1.8-1.9h-70.8c-1.3 0-2 .1-1.8 1.7.1 1.2-.5 2.1-1.9 2.2-1.4 0-2.2-.9-2-2.2.2-1.6-.6-1.7-1.9-1.7h-39.4c-1.5 0-1.8.4-1.8 1.9v57.7ZM331.4 96.2c-.1-.2-.3-.4-.4-.5H214.5c-1.3 0-1.7.3-1.7 1.7 0 1.9-1.7 3-3 1.8-1-.9-1.3-.2-1.9.3-12.7 12.7-25.3 25.4-38 38.1-.3.3-.9.5-.8 1.2h117.8c1.1 0 1.9-.4 2.7-1.1 13.5-13.6 27-27.1 40.6-40.7.3-.3.8-.5 1.3-.8Zm-40.2 165h.4l39.3-39.3c.5-.5.5-.7 0-1.3-1.2-1.5-.4-3.3 1.5-3.2 2 .1 1.9-.9 1.9-2.3V98.3c-.7.9-1.1 1.3-1.5 1.7l-40.2 40.2c-1 1-1.4 2.1-1.4 3.5v117.6Zm-3.7 8.4h-122c-4 0-4.8-.7-4.8-4.8V142.5c0-2.1.6-3.7 2.2-5.2 14.9-14.9 29.8-29.8 44.6-44.7 1.4-1.4 2.9-2.1 4.9-2.1H334.8c3.9 0 4.7.8 4.7 4.7V217.6c0 2-.6 3.6-2.1 5.1-14.9 14.9-29.8 29.8-44.6 44.7-1.5 1.5-3 2.1-5.2 2.1Zm-86.3-2.4h86.2c1.4 0 2.5-.4 3.5-1.4 14.8-14.9 29.7-29.9 44.6-44.7 1-1 1.4-1.9 1.4-3.3V95.3c0-.5 0-1.9-.2-2.1-.2-.2-1.6-.2-2.1-.2H212.2c-1.4 0-2.2.4-3.1 1.4-14.8 14.9-29.7 29.9-44.6 44.7-1.1 1.1-1.5 2-1.5 3.5V264.9c0 .6 0 2 .2 2.2.2.2 1.6.2 2.2.2h35.8Zm84.3-1.5H170.2c-.8 0-1.7 0-2.3-.6-.4-.4-.7-1-.7-1.8-.9 0-1.5-.3-2-.8-.7-.7-.6-1.6-.6-2.2V144.7c0-.9 0-1.7.7-2.4.6-.6 1.5-.7 2.3-.7H207c.8 0 1.8 0 2.5.8s.6 1.9.6 2.2c0 .3 0 .6.1.7.1.2.5.2.6.2.2 0 .4 0 .6-.2.1-.1.2-.4.1-.6 0-.6 0-1.6.5-2.3.7-.8 1.8-.8 2.5-.8h70.8c.8 0 1.7 0 2.3.7.7.7.7 1.6.7 2.4v70.7c0 .8 0 1.9-.8 2.6-.8.7-1.9.6-2.3.6-.1 0-.4 0-.6.1-.1.1-.2.3-.2.6 0 .2 0 .5.2.6.1.1.3.2.6.1.4 0 1.5-.1 2.3.6.7.7.8 1.7.8 2.6v39.5c0 .8 0 1.6-.7 2.3-.6.6-1.5.7-2.3.7Zm-78.9-2.5H286v-40.8h-.4c-1 0-1.8-.2-2.5-.8-.6-.6-1-1.4-1-2.4s.4-1.8 1-2.4c.6-.6 1.5-.8 2.4-.7h.5V144h-72.1v.3c.1 1-.1 1.8-.7 2.5-.6.6-1.4 1-2.3 1-1.3 0-2.1-.5-2.5-.9-.6-.6-.9-1.6-.8-2.6v-.5c0 .1-.5.1-.7.1h-40V260.6h.1c1.3 0 2.4 1.2 2.4 2.5h37Zm85.5-.8h-1.8l-.3-1.2V143.6c0-1.8.5-3.1 1.8-4.4 11.7-11.6 23.3-23.3 34.9-35l5.3-5.3c.2-.2.4-.5.7-.8l2.8-3.2V215c0 1.1 0 2.1-.7 2.8-.7.7-1.7.7-2.4.6-.2 0-.5 0-.7.3-.1.2-.1.6.2 1 .6.8 1.1 1.7-.1 2.9l-28.2 28.2-11.4 11.4Zm40.9-161-4.7 4.7c-11.6 11.7-23.3 23.3-34.9 35-.8.8-1.1 1.5-1.1 2.7v115.1l9.4-9.4c9.3-9.4 18.7-18.7 28-28-.8-1.2-.9-2.5-.4-3.5.6-1 1.7-1.6 3-1.5h.7V101.8ZM286.9 140H168l-.2-1c-.2-1.2.6-1.9 1-2.2l34-34 4.1-4.2c.6-.6 1.7-1.9 3.5-.4.2.2.4.2.6.2.2-.1.5-.4.5-1 0-.7 0-1.6.7-2.2.6-.6 1.5-.7 2.2-.7H331.3l1 1 .9 1.1-1.2.7c-.2 0-.3.2-.5.3-.2.1-.4.2-.5.3-13.5 13.5-27.1 27.1-40.6 40.7-1 1-2.1 1.5-3.5 1.5Zm-115.4-2.4h115.4c.7 0 1.2-.2 1.8-.8l39.9-39.9H214v.4c0 1.5-.7 2.7-1.9 3.2-1 .5-2.2.3-3.2-.5l-4.4 4.4c-11 11-22 22.1-33.1 33.1Zm41.3 50.2c-.1-1.2-.8-1.9-2-1.9s-1.9.8-1.9 2v4c0 1.2.8 1.9 2 1.9s1.8-.8 2-1.9v-4Zm-2 7.2c-1.8 0-3-1.2-3.1-3v-4.1c0-1.8 1.3-3.1 3.1-3.1s3 1.1 3.2 3V192.1c-.2 1.8-1.4 3-3.1 3Zm.1-7.8c-.4 0-.7.1-.7.8v3.9c0 .6.3.7.8.7.4 0 .7 0 .8-.8V188c0-.8-.5-.8-.7-.8Zm-2.1 20.3c0 1.2.7 2 1.9 2 1.3 0 2-.8 2.1-2v-2.1c0-1.6.3-3.4-1.9-3.7-1.5-.2-2.1 1-2 3.8v2.1Zm2 3.2c-1.8 0-3-1.3-3.1-3.1v-2.1c0-2.3.4-3.6 1.2-4.4.4-.3 1.1-.7 2.2-.6 3.1.4 3 3 3 4.4v2.7c-.1 1.9-1.4 3.2-3.2 3.2Zm-.1-7.9c-.3 0-.7.4-.7 2.6V207.5c0 .8.4.8.7.8.3 0 .8 0 .8-.9v-2.6c0-1.7 0-1.8-.9-1.9Zm13.8 14.5h-1.9c-1.2 0-2 .7-2 1.9 0 1.3.7 2 2 2.1h4c1.1 0 1.8-.8 1.8-1.9 0-1.2-.6-1.9-1.8-2.1h-2.1Zm-.2 5.2h-1.8c-2 0-3.2-1.4-3.2-3.3 0-1.8 1.3-2.9 3.1-3.1H226.6c1.8.2 3 1.5 2.9 3.3 0 1.7-1.2 2.9-3 3h-2.4Zm-1-4h-.6c-.9 0-.9.5-.9.7 0 .4 0 .8.9.8h3.9c.4 0 .6-.1.7-.7 0-.5-.1-.7-.8-.8h-3.2Zm19.1 2.7c1.1-.1 1.7-.9 1.7-1.9 0-1-.5-1.8-1.5-1.9-1.6-.1-3.2-.1-4.8 0-1 0-1.6.9-1.5 1.9 0 1.1.6 1.8 1.7 1.9h4.4Zm-.9 1.3h-3.6c-1.7-.2-2.8-1.4-2.8-3.1 0-1.7 1.1-3 2.6-3.1 1.6-.1 3.3-.1 5 0 1.6.1 2.7 1.4 2.7 3.1 0 1.7-1.1 3-2.8 3.1h-1Zm-1.4-2.5H242.2c.3 0 .6-.1.6-.8 0-.2 0-.7-.4-.7-1.5-.1-3.1-.1-4.6 0-.4 0-.4.4-.4.7 0 .6.2.7.6.7h2Zm-27.3-45.7v-1.9c0-1.2-.7-2.1-1.9-2.2-1.3 0-2 .8-2 2.1v4.2c0 1 .8 1.6 1.8 1.6s1.7-.5 1.9-1.5c.2-.7.1-1.5.2-2.3Zm-2 5h-.1c-1.7 0-2.9-1.1-3-2.7 0-1.3-.1-2.6 0-4.3 0-1 .4-1.8 1-2.4.6-.6 1.4-.8 2.3-.8 1.8 0 3 1.3 3.1 3.3v2.7c0 .6 0 1.2-.2 1.8-.3 1.5-1.5 2.4-3 2.4Zm0-7.8c-.2 0-.4 0-.5.1-.1.1-.2.4-.2.7v4.1c0 .2 0 .5.7.5.5 0 .7-.2.7-.5 0-.4 0-.8.1-1.3V172.5c0-1-.5-1-.8-1Zm45 49.7h2.3c1.1-.1 1.7-.9 1.7-2 0-1-.6-1.8-1.6-1.9-1.6-.1-3.2-.1-4.8 0-1 0-1.5.9-1.5 1.9 0 1 .5 1.7 1.6 1.9.8.1 1.5.1 2.3.1v-.1Zm0 1.4h-.7c-.6 0-1.1 0-1.7-.2-1.6-.2-2.6-1.4-2.6-3 0-1.7 1-3 2.6-3.2 1.6-.1 3.2-.2 5 0 1.6.1 2.7 1.4 2.7 3.1 0 1.8-1.1 3-2.8 3.2h-2.5Zm-1.2-1.3h1.2-1.2Zm1.4-2.8c-.8 0-1.7 0-2.4.1-.3 0-.4.3-.4.7 0 .6.3.7.5.7H257.9c.3 0 .6-.1.6-.8 0-.4-.2-.6-.5-.7h-2.1Zm17.8 2.7c1-.1 1.6-.8 1.7-1.8 0-1.1-.5-2-1.6-2-1.6-.1-3.2-.1-4.8 0-1 0-1.5.9-1.5 1.9 0 1 .6 1.7 1.6 1.8.8.1 1.5 0 2.2.1.8 0 1.6 0 2.4-.1Zm-2.4 1.4h-.7c-.5 0-1.1 0-1.7-.2-1.6-.2-2.6-1.4-2.6-3 0-1.7 1-3 2.6-3.2 1.7-.2 3.3-.2 5 0 1.7.1 2.8 1.5 2.7 3.3 0 1.6-1.1 2.7-2.7 2.9h-2.5Zm.3-4.1c-.8 0-1.7 0-2.5.1-.3 0-.4.3-.4.7 0 .6.3.6.6.7h4.2c.4 0 .6-.2.6-.7 0-.7-.3-.8-.5-.8h-2.1Zm-58.9-59.9v-1.9c0-1.2-.7-2.1-2-2.1s-2 .8-2 2.1v4c0 1.1.8 1.7 1.9 1.7 1.1 0 1.8-.6 2-1.7.1-.7 0-1.4 0-2.1Zm-2 5c-1.8 0-3-1.1-3.1-2.9v-4.1c0-2 1.4-3.3 3.2-3.3 1.8 0 3.1 1.3 3.2 3.3V160.9c-.3 1.7-1.5 2.7-3.1 2.7Zm0-7.8c-.3 0-.7 0-.7.9v3.9c0 .3 0 .6.7.6.4 0 .7-.1.7-.7V156.8c0-1-.5-1-.8-1Zm-35.3 101.4c1.5-1 2.8-2.3 3.9-3.9.5-.7.2-1.5-.4-2.1-.6-.6-1.4-.9-2.2-.4-1.4 1-2.7 2.2-3.6 3.6-.8 1.2.2 2.9 1.8 2.9.1 0 .4 0 .6-.2Zm-.7 1.4c-1.2 0-2.3-.8-2.9-1.9-.5-1-.4-2.1.2-2.9 1-1.5 2.4-2.8 3.9-3.9 1.2-.8 2.7-.6 3.8.5 1.1 1.1 1.3 2.5.5 3.6-1.1 1.7-2.5 3.1-4.2 4.2-.3.2-.7.3-.9.3h-.4Zm2.8-6.8h-.2c-1.3.9-2.5 2.1-3.3 3.3-.1.2 0 .4 0 .5.1.2.3.4.7.5 1.4-.9 2.6-2.1 3.6-3.5 0-.1 0-.3-.2-.6-.2-.2-.4-.3-.5-.3Zm28.5-29.7c0 1.3 1.5 2.5 2.6 1.8 1.6-.9 2.9-2.3 3.9-3.8.7-1.2-.3-2.7-1.7-2.7-1.2 0-4.8 3.5-4.8 4.7Zm1.9 3.2c-.5 0-1-.1-1.5-.4-1-.6-1.6-1.7-1.6-2.8 0-1.3 1.5-3 2.5-3.8 1.5-1.4 2.7-2.1 3.6-2.1 1.1 0 2.2.7 2.7 1.7.5.9.5 2 0 2.9-1.1 1.8-2.6 3.3-4.3 4.3-.4.2-.9.3-1.3.3Zm2.9-6.8c-.9.3-3.4 2.8-3.6 3.6 0 .2.2.5.4.6.1 0 .3.1.4 0 1.4-.8 2.5-1.9 3.4-3.4v-.5c-.1-.2-.3-.4-.6-.4Zm-14.8 16.4c.8.4 1.5.3 2.1-.2 1-.9 2-1.9 3-3 .8-.9.8-1.9-.1-2.7-.9-.9-1.8-.8-2.7 0-1 .9-1.9 1.9-2.8 2.8-.4.4-.6.8-.6 1.4.1.7.5 1.2 1.1 1.6Zm.9 1.5c-.5 0-1-.1-1.5-.4-.9-.5-1.5-1.3-1.7-2.4v-.2c0-.9.3-1.7.9-2.3.9-1 1.9-2 2.9-2.9 1.4-1.3 3.1-1.3 4.4 0 1.3 1.3 1.4 3 .2 4.4-1 1.1-2 2.1-3.1 3-.6.5-1.3.8-2 .8Zm-.8-3.2c.1.4.3.6.5.7.3.2.5.1.7 0 1-.9 2-1.9 2.9-2.9.3-.4.4-.6 0-1-.4-.3-.6-.4-1 0-1 .9-1.9 1.8-2.8 2.8-.1.1-.2.3-.2.5Zm-6.5 6.7c-.6-.4-1.3-.5-1.9 0-1.3 1.1-2.6 2.2-3.6 3.6-.5.6-.3 1.3 0 1.9.4.6 1 1 1.8.9 1.1 0 4.6-3.6 4.7-4.8 0-.7-.4-1.3-1-1.7Zm-3.8 7.6c-1.1 0-2.1-.5-2.7-1.5-.8-1.2-.8-2.4 0-3.3 1-1.4 2.3-2.7 3.8-3.8 1-.8 2.2-.8 3.4 0 .9.6 1.5 1.5 1.5 2.6v.1c0 1.8-4.1 5.9-5.8 5.9h-.1Zm2.7-6.8h-.1c-1.3 1-2.5 2.2-3.4 3.4 0 0-.1.2.1.6.2.4.5.4.7.4.7-.2 3.1-2.7 3.5-3.6 0-.2-.2-.4-.4-.6-.2-.1-.3-.2-.4-.2Zm20.3-111.3c.1 1 .8 1.6 1.8 1.6s1.8-.5 1.9-1.5c.2-1.6.3-3.3 0-4.9-.2-1-1-1.4-2-1.4-.9 0-1.6.5-1.7 1.5-.1.8-.1 1.5-.1 2.3 0 .8 0 1.7.1 2.5Zm1.9 2.8c-1.6 0-2.8-1-3-2.6 0-.6-.1-1.2-.1-1.8v-1.5c0-.6 0-1.2.1-1.7.2-1.5 1.3-2.4 2.9-2.5 1.7 0 3 .8 3.3 2.4.3 1.6.3 3.4 0 5.3-.2 1.5-1.4 2.5-3.1 2.5Zm-.8-5.3v.7c0 .5 0 1.1.1 1.6 0 .3.1.5.7.5s.7-.3.7-.5c.2-1.6.2-3.2 0-4.5 0-.2 0-.4-.8-.4-.5 0-.6.2-.6.4 0 .5 0 1-.1 1.5v.7Zm2.8-15.5v-2.3c-.2-1.1-.9-1.7-2-1.7s-1.8.6-1.9 1.7v4.4c0 1 .7 1.6 1.7 1.7 1.1 0 1.8-.5 2.1-1.6.2-.7 0-1.5.1-2.3Zm-1.9 5.1h-.3c-1.6-.1-2.8-1.2-2.9-2.8 0-1.4-.1-2.9 0-4.5 0-1.7 1.3-2.8 3.1-2.9 1.7 0 3 1 3.2 2.7v3.2c0 .6 0 1.2-.2 1.8-.4 1.6-1.5 2.5-3 2.5Zm-.1-7.8c-.6 0-.7.2-.7.6v4.2c0 .3 0 .5.6.6.4 0 .7 0 .8-.6v-4.1c0-.4-.2-.6-.7-.6Zm92 112.5h2.3c1.1-.1 1.7-.8 1.7-1.9 0-1-.5-1.8-1.5-1.9-1.6-.1-3.2-.1-4.8 0-1 0-1.5.9-1.5 1.9 0 1.1.6 1.8 1.7 1.9.7 0 1.4 0 2.1.1Zm-.1 1.3h-.6c-.5 0-1 0-1.6-.1-1.7-.2-2.8-1.4-2.8-3.1 0-1.7 1.1-3 2.6-3.1 1.6-.1 3.3-.1 5 0 1.6.1 2.6 1.4 2.6 3.1 0 1.8-1.1 3-2.8 3.1h-2.5Zm.2-4h-2.3c-.1 0-.4 0-.4.7 0 .5.2.7.7.7H304.9c.4 0 .6-.1.6-.7s-.3-.7-.4-.7h-2.2Zm15.7-1.2h-1.9c-1.1.1-1.9.7-2 1.9 0 1.3.7 2 2 2.1h4c1.1 0 1.8-.7 1.8-1.9s-.6-1.9-1.8-2.1h-2.1Zm-.2 5.2h-1.8c-2 0-3.2-1.4-3.1-3.3 0-1.7 1.2-2.9 3.1-3.1H320.8c1.8.2 2.9 1.5 2.9 3.3 0 1.7-1.2 2.9-2.9 3h-2.3Zm-1-4h-.6c-.9 0-.9.4-.9.7 0 .5 0 .8.8.8h3.9c.5 0 .6-.2.7-.7 0-.5 0-.7-.7-.8h-3.2Z" style="fill:#fff;stroke:#fff;stroke-miterlimit:10;stroke-width:4px"></path><path d="M495 350V3.9H5V350h239.9v29.2h-93c-2.8 0-5.1 2.3-5.1 5.1s2.3 5.1 5.1 5.1h196.2c2.8 0 5.1-2.3 5.1-5.1s-2.3-5.1-5.1-5.1h-93V350H495ZM15.2 14.2h469.5v325.6H15.2V14.2Z" style="stroke-width:0;fill:#fff"></path></svg>