<svg xmlns="http://www.w3.org/2000/svg" id="Layer_1" data-name="Layer 1" viewBox="0 0 500 445.4" width="500" height="445"><defs><style>.cls-2{fill:#fff}.cls-3{fill:none}.cls-2,.cls-3,.cls-5{stroke-width:0}.cls-5{fill:#1e90ff}</style></defs><path class="cls-2" d="M254.8 399.5v29.9h93.4c2.7 0 4.8 2.2 4.8 4.8s-2.1 4.8-4.8 4.8H151.8c-2.7 0-4.8-2.2-4.8-4.8s2.2-4.8 4.8-4.8h93.4v-29.9H5V53.6h104.6v9.6h-95v326.7h470.8V63.2h-237v-9.6H495v345.9H254.8Z"></path><path class="cls-3" d="m280.1 106.9-6.9 1 6.9-1zM100.2 74l1.3 6.8-1.3-6.8z"></path><path d="M296 111.2c-1-1.7-2.7-4-5.3-6.2-1.6-1.3-3.1-2.2-4.4-2.8-2.6-9.8-9.7-17.8-18.8-21.7-7.2-42.3-44-74.1-87.9-74.1s-73 25.4-84.8 61.6c-25.9 6.6-44.3 29.9-44.3 57.4s26.6 59.3 59.3 59.3l59.3.4v-14.4h-59.3c-25 0-45.4-20.3-45.4-45.4s15.7-40.8 37.1-44.6l-1.2-6.9 1.2 6.9 4.3-.8 1.2-4.3c8.8-32.3 38.7-55.4 72.6-55.4s70.2 28.7 74.7 66.1l.6 4.7 4.6 1.2c7.2 1.9 12.8 8.1 13.9 15.5l6.9-1-6.9 1 .5 3.8 3.5 1.6" style="fill:#0096ff;stroke-width:0"></path><path d="M326.2 175.2v54.3c0 1.5-.5 2.6-1.5 3.7-13.2 13.2-26.4 26.4-39.6 39.7-1.1 1.1-2.3 1.6-3.9 1.6H172.9c-3 0-3.2-.2-3.2-3.2V162.8c0-1.6.5-2.7 1.6-3.9 13.2-13.2 26.4-26.4 39.6-39.7 1-1 2.1-1.5 3.6-1.5h108.7c2.9 0 3.1.2 3.1 3.1v54.4Zm-153 40.6v51c0 .8-.3 1.8 1.2 1.8.6 0 1.1.6 1.1 1.2 0 1.2.8 1.1 1.6 1.1h102.4c1.2 0 1.6-.3 1.6-1.6v-35c0-1.2-.1-1.9-1.6-1.7-1.1.1-1.9-.5-1.9-1.7s.8-1.8 1.9-1.7c1.5.2 1.6-.5 1.6-1.7v-62.8c0-1.3-.2-1.7-1.6-1.7h-62.8c-1.1 0-1.8.1-1.6 1.5.1 1.1-.5 1.9-1.7 1.9-1.3 0-1.9-.8-1.8-2 .1-1.4-.6-1.5-1.7-1.5h-35c-1.4 0-1.6.4-1.6 1.7v51.2Zm147-94.2c-.1-.2-.3-.3-.4-.5H216.4c-1.2 0-1.5.3-1.5 1.5 0 1.7-1.5 2.6-2.7 1.6-.9-.8-1.2-.2-1.7.3-11.2 11.3-22.5 22.5-33.7 33.8-.3.3-.8.5-.7 1.1h104.6c1 0 1.7-.3 2.4-1 12-12 24-24.1 36-36.1.3-.3.7-.5 1.1-.7ZM284.5 268h.4c11.6-11.6 23.2-23.2 34.8-34.9.4-.4.4-.6 0-1.2-1-1.3-.3-3 1.3-2.9 1.8.1 1.7-.8 1.7-2V123.3c-.7.8-1 1.1-1.3 1.5l-35.7 35.7c-.9.9-1.3 1.8-1.3 3.1v104.3Zm-3.3 7.5H172.9c-3.6 0-4.2-.6-4.2-4.3V162.7c0-1.9.6-3.3 1.9-4.6 13.2-13.2 26.4-26.4 39.6-39.7 1.3-1.3 2.6-1.8 4.3-1.8h108.6c3.4 0 4.1.7 4.1 4.2v108.6c0 1.8-.6 3.2-1.9 4.5-13.2 13.2-26.4 26.4-39.6 39.7-1.3 1.3-2.7 1.9-4.6 1.9Zm-76.5-2.2h76.5c1.3 0 2.2-.3 3.1-1.3 13.2-13.3 26.4-26.5 39.6-39.7.9-.9 1.2-1.7 1.2-3V120.6c0-.5 0-1.7-.2-1.9-.2-.1-1.4-.1-1.8-.1H214.5c-1.2 0-1.9.3-2.8 1.2-13.2 13.3-26.4 26.5-39.6 39.7-.9.9-1.3 1.8-1.3 3.1v108.5c0 .6 0 1.8.2 2 .2.1 1.4.1 1.9.1H204.7Zm74.8-1.3H177.1c-.7 0-1.5 0-2.1-.5-.4-.4-.6-.9-.6-1.6-.8 0-1.4-.3-1.8-.7-.6-.6-.5-1.4-.5-2V164.7c0-.8 0-1.5.6-2.1.6-.6 1.4-.7 2.1-.6h35c.7 0 1.6 0 2.3.7.6.7.5 1.7.5 2 0 .3 0 .5.1.6.1.1.4.1.6.1.2 0 .4 0 .5-.2.1-.1.1-.3.1-.6 0-.6 0-1.4.5-2 .6-.7 1.6-.7 2.2-.7h62.8c.7 0 1.5 0 2.1.6.6.6.6 1.4.6 2.1v62.8c0 .7 0 1.7-.7 2.3-.7.6-1.7.5-2.1.5-.1 0-.4 0-.5.1-.1.1-.2.3-.2.6 0 .1 0 .4.2.5.1 0 .3.1.5.1.3 0 1.4-.1 2.1.5.7.6.7 1.5.7 2.3v35c0 .7 0 1.5-.6 2-.5.5-1.3.6-2 .6Zm-70-2.2H280v-36.2h-.4c-.9 0-1.6-.2-2.2-.7-.6-.5-.9-1.3-.9-2.1 0-.9.3-1.6.9-2.1.6-.5 1.3-.7 2.2-.6h.5V164h-63.9v.3c0 .8-.1 1.6-.6 2.2-.5.6-1.2.9-2.1.9-1.1 0-1.8-.4-2.2-.8-.5-.6-.8-1.4-.7-2.3v-.4c0 .1-.4.1-.6.1h-35.6V267.6h.1c1.1 0 2.2 1.1 2.2 2.2H209.6Zm75.8-.7h-1.6l-.3-1.1V163.7c0-1.6.5-2.8 1.6-3.9 10.4-10.3 20.7-20.7 31-31l4.7-4.7c.2-.2.4-.4.6-.7l2.5-2.9v106.6c0 1 0 1.9-.7 2.5-.6.6-1.5.6-2.2.6-.2 0-.5 0-.6.2 0 .2 0 .5.2.9.5.7.9 1.5-.1 2.6L295.3 259l-10.1 10.1Zm36.4-142.9-4.1 4.1c-10.3 10.4-20.7 20.7-31 31-.7.7-1 1.3-1 2.4V265.8l8.3-8.3c8.3-8.3 16.6-16.7 25-25-.7-1.1-.8-2.2-.3-3.1.5-.9 1.5-1.4 2.6-1.4h.6V126.2Zm-41 34.3H175.2l-.1-.9c-.2-1.1.6-1.7.9-1.9l30.2-30.2 3.7-3.7c.5-.5 1.5-1.7 3.1-.3.2.2.4.2.5.1.2 0 .4-.4.4-.9 0-.7 0-1.4.6-1.9.5-.5 1.4-.7 2-.6h103.7l.9.9.8 1-1.1.6c-.1 0-.3.2-.4.2-.2.1-.4.2-.5.3-12 12-24 24-36 36.1-.9.9-1.9 1.3-3.1 1.3Zm-102.4-2.2h102.4c.7 0 1.1-.2 1.6-.7l35.4-35.4H216.1v.4c0 1.3-.6 2.4-1.7 2.9-.9.4-2 .3-2.8-.4l-3.9 3.9c-9.8 9.8-19.6 19.6-29.3 29.4Zm36.7 44.6c-.1-1-.7-1.7-1.8-1.7-1 0-1.7.7-1.7 1.7v3.6c0 1.1.7 1.7 1.8 1.7s1.6-.7 1.7-1.7V202.9Zm-1.8 6.4c-1.6 0-2.7-1.1-2.8-2.7v-3.7c0-1.6 1.2-2.7 2.8-2.8 1.6 0 2.7 1 2.9 2.6v3.8c-.2 1.6-1.2 2.7-2.8 2.7Zm.1-7c-.3 0-.6 0-.7.7v3.5c0 .6.3.7.7.6.3 0 .6 0 .7-.8V203c0-.7-.4-.7-.6-.7Zm-1.8 18.1c0 1.1.6 1.7 1.7 1.8 1.1 0 1.7-.7 1.8-1.8v-1.9c0-1.4.3-3-1.7-3.3-1.3-.2-1.8.9-1.8 3.3v1.9Zm1.7 2.8c-1.6 0-2.6-1.1-2.7-2.8v-2c0-2 .3-3.2 1.1-3.9.4-.3 1-.7 1.9-.5 2.7.4 2.7 2.6 2.7 3.9V220.3c-.1 1.7-1.2 2.8-2.8 2.8Zm-.1-6.9c-.3 0-.6.4-.6 2.3V220.4c0 .7.4.7.6.7.3 0 .7 0 .7-.8V218c0-1.5 0-1.6-.8-1.7Zm12.3 12.8h-1.7c-1 0-1.7.6-1.8 1.7 0 1.2.7 1.8 1.8 1.8h3.6c1 0 1.6-.7 1.6-1.7s-.6-1.7-1.6-1.8h-1.9Zm-.2 4.6h-1.6c-1.8 0-2.9-1.2-2.8-2.9 0-1.6 1.1-2.6 2.8-2.7H227.4c1.6.2 2.6 1.3 2.6 2.9 0 1.5-1.1 2.6-2.6 2.7h-2.1Zm-.9-3.6h-.5c-.8 0-.8.4-.8.7 0 .4 0 .7.8.7h3.5c.3 0 .6-.1.6-.6 0-.4 0-.7-.7-.7h-2.8Zm16.9 2.5c1 0 1.5-.8 1.5-1.7 0-.9-.5-1.6-1.4-1.7-1.4-.1-2.8-.1-4.2 0-.9 0-1.4.8-1.4 1.7 0 1 .5 1.6 1.5 1.7h3.9Zm-.7 1.1h-3.3c-1.5-.2-2.5-1.2-2.5-2.8 0-1.5.9-2.7 2.3-2.8 1.5-.1 2.9-.1 4.4 0 1.4.1 2.4 1.3 2.4 2.8 0 1.5-1 2.6-2.5 2.8h-.9Zm-1.3-2.2h1.9c.3 0 .5 0 .6-.7 0-.2 0-.6-.4-.6-1.4-.1-2.7-.1-4.1 0-.3 0-.4.2-.4.6 0 .5.2.6.6.7H239.1ZM215 190.9v-1.7c0-1.1-.6-1.9-1.7-1.9s-1.8.7-1.8 1.8v3.7c0 .9.8 1.4 1.6 1.4.9 0 1.5-.4 1.7-1.3.1-.7.1-1.3.1-2Zm-1.8 4.5h-.1c-1.5 0-2.6-1-2.7-2.4 0-1.1-.1-2.3 0-3.8 0-.9.3-1.6.9-2.1.5-.5 1.2-.7 2-.7 1.6 0 2.7 1.2 2.8 2.9v2.4c0 .5 0 1.1-.1 1.6-.3 1.3-1.3 2.2-2.7 2.2Zm0-7c-.2 0-.4 0-.4.1-.1.1-.2.4-.2.6v3.6c0 .2 0 .4.6.4.5 0 .6-.2.6-.5v-3.4c0-.9-.4-.9-.7-.9Zm40 44.2h2c1-.1 1.5-.8 1.5-1.8 0-.9-.5-1.6-1.4-1.7h-4.2c-.9 0-1.4.8-1.3 1.7 0 .9.5 1.5 1.4 1.6.7 0 1.4 0 2 .1Zm-.1 1.1h-.6c-.5 0-1 0-1.5-.1-1.4-.2-2.3-1.2-2.3-2.7 0-1.5.9-2.7 2.3-2.8 1.4-.1 2.9-.1 4.4 0 1.4 0 2.4 1.2 2.4 2.7 0 1.6-.9 2.7-2.4 2.8h-2.2Zm-1-1.1h1.1-1.1Zm1.2-2.4h-2.2c-.2 0-.4.2-.4.6 0 .5.2.6.5.6h3.8c.3 0 .5-.1.5-.7 0-.4-.1-.6-.4-.6h-1.9Zm15.8 2.4c.9-.1 1.4-.7 1.5-1.6 0-1-.4-1.7-1.4-1.8-1.4-.1-2.8 0-4.2 0-.9 0-1.3.8-1.3 1.7 0 .9.5 1.5 1.4 1.6.7 0 1.4 0 2 .1.8 0 1.4 0 2.1-.1Zm-2.1 1.1h-.6c-.5 0-1 0-1.5-.1-1.4-.2-2.3-1.2-2.3-2.7 0-1.5.9-2.7 2.3-2.8 1.5-.1 3-.2 4.4 0 1.5.1 2.5 1.3 2.4 2.9 0 1.4-1 2.4-2.4 2.6h-2.2Zm.3-3.5c-.7 0-1.5 0-2.2.1-.2 0-.4.2-.4.6 0 .5.2.6.5.6h3.8c.3 0 .5-.1.5-.6 0-.6-.3-.7-.4-.7h-1.8ZM215 177v-1.7c0-1.1-.6-1.9-1.8-1.9-1.1 0-1.7.7-1.8 1.9v3.6c0 1 .7 1.5 1.7 1.5s1.6-.6 1.7-1.5V177Zm-1.8 4.4c-1.6 0-2.6-1-2.7-2.5v-3.7c0-1.8 1.2-2.9 2.8-2.9 1.6 0 2.7 1.1 2.8 2.9V178.9c-.2 1.5-1.3 2.4-2.8 2.4Zm0-6.9c-.3 0-.6 0-.6.8v3.5c0 .3 0 .5.6.5.4 0 .6 0 .7-.6v-3.4c0-.9-.4-.9-.7-.9Zm-31.4 90c1.4-.9 2.5-2.1 3.4-3.4.4-.7.2-1.3-.3-1.9-.6-.6-1.3-.8-2-.3-1.3.9-2.4 2-3.2 3.2-.7 1 .2 2.5 1.6 2.6.1 0 .3 0 .5-.2Zm-.5 1.3c-1.1 0-2.1-.7-2.6-1.7-.4-.9-.4-1.8.1-2.6.9-1.3 2.1-2.5 3.5-3.5 1.1-.7 2.4-.6 3.4.5 1 1 1.1 2.2.5 3.2-1 1.5-2.3 2.7-3.7 3.7-.3.2-.6.3-.8.3h-.4Zm2.4-6.1h-.2c-1.2.8-2.2 1.8-2.9 2.9-.1.2 0 .3 0 .4 0 .2.3.4.6.5 1.3-.8 2.3-1.9 3.2-3.1 0-.1 0-.3-.2-.5s-.3-.3-.4-.3Zm25.3-26.4c0 1.2 1.3 2.2 2.3 1.6 1.4-.8 2.6-2 3.4-3.4.6-1-.3-2.4-1.5-2.4-1.1 0-4.3 3.1-4.3 4.2Zm1.7 2.9c-.5 0-.9-.1-1.3-.4-.9-.5-1.4-1.5-1.4-2.5 0-1.1 1.4-2.6 2.2-3.4 1.3-1.3 2.4-1.9 3.2-1.9 1 0 1.9.6 2.4 1.5.5.8.4 1.8 0 2.5-1 1.6-2.3 2.9-3.8 3.8-.4.2-.8.3-1.2.3Zm2.6-6c-.8.2-3 2.5-3.2 3.2 0 .2.2.4.4.5.1 0 .2.1.4 0 1.2-.7 2.2-1.7 3-3v-.4c0-.2-.3-.3-.5-.4Zm-13.2 14.5c.7.4 1.3.3 1.9-.2.9-.8 1.8-1.7 2.6-2.6.7-.8.7-1.7 0-2.4-.8-.8-1.6-.7-2.4 0-.9.8-1.7 1.7-2.5 2.5-.3.3-.5.7-.5 1.3.1.6.4 1.1 1 1.4Zm.9 1.3c-.5 0-.9-.1-1.4-.4-.8-.5-1.3-1.2-1.5-2.2v-.2c0-.8.2-1.5.8-2 .8-.9 1.7-1.7 2.6-2.6 1.2-1.2 2.7-1.2 3.9 0 1.2 1.2 1.2 2.7.1 3.9l-2.7 2.7c-.5.5-1.1.7-1.8.7Zm-.8-2.8c0 .4.3.5.5.6.3.1.4.1.6 0 .9-.8 1.8-1.7 2.6-2.6.3-.3.4-.5 0-.9-.3-.3-.5-.4-.9 0-.8.8-1.7 1.6-2.5 2.5-.1.1-.2.3-.2.4Zm-5.7 5.9c-.6-.4-1.2-.5-1.7 0-1.2.9-2.3 2-3.2 3.2-.4.6-.3 1.2 0 1.7.4.5.9.9 1.6.8 1 0 4.1-3.2 4.1-4.2 0-.6-.3-1.1-.9-1.5Zm-3.4 6.8c-1 0-1.8-.5-2.4-1.3-.7-1-.7-2.1 0-3 .9-1.2 2.1-2.4 3.4-3.4.9-.7 2-.7 3 0 .8.5 1.3 1.4 1.3 2.3v.1c0 1.6-3.6 5.2-5.2 5.3h-.1Zm2.4-6.1h-.1c-1.2.9-2.2 1.9-3 3 0 0-.1.1.1.5.2.3.5.4.6.4.6-.2 2.8-2.4 3.1-3.2 0-.2-.2-.4-.4-.5-.2-.1-.3-.1-.3-.1Zm18-98.7c.1.9.7 1.4 1.6 1.4.9 0 1.6-.5 1.7-1.3.2-1.5.2-2.9 0-4.4-.2-.9-.9-1.3-1.8-1.2-.8 0-1.4.5-1.5 1.3-.1.7 0 1.4-.1 2 0 .7 0 1.5.1 2.2Zm1.7 2.4c-1.5 0-2.5-.9-2.7-2.3 0-.5 0-1.1-.1-1.6v-1.4c0-.5 0-1 .1-1.5.2-1.3 1.2-2.1 2.5-2.2 1.5 0 2.6.7 2.9 2.1.3 1.5.3 3 0 4.7-.2 1.4-1.3 2.3-2.7 2.3Zm-.7-4.6v.6c0 .5 0 .9.1 1.4 0 .3.1.5.6.5s.6-.3.6-.4c.2-1.5.2-2.8 0-4 0-.1 0-.4-.7-.3-.5 0-.5.2-.5.4v1.9Zm2.5-13.8v-2c-.1-1-.8-1.5-1.8-1.5s-1.6.5-1.7 1.5v3.9c0 .9.6 1.4 1.6 1.5 1 0 1.6-.5 1.8-1.4.1-.6 0-1.3.1-2Zm-1.7 4.5h-.3c-1.5-.1-2.4-1.1-2.5-2.5v-4c0-1.5 1.1-2.5 2.7-2.6 1.5 0 2.6.9 2.8 2.4V135.7c0 .5 0 1.1-.1 1.6-.3 1.4-1.3 2.2-2.7 2.2Zm-.1-6.9c-.6 0-.6.2-.6.5v3.8c0 .2 0 .5.6.5.4 0 .6 0 .7-.6V133.3c0-.4-.2-.6-.6-.6Zm81.7 99.9h2c1 0 1.5-.7 1.5-1.7 0-.9-.5-1.6-1.3-1.7-1.4-.1-2.8-.1-4.2 0-.9 0-1.4.8-1.4 1.7 0 1 .5 1.6 1.5 1.7h1.9Zm-.1 1.1h-2c-1.5-.2-2.5-1.2-2.5-2.8 0-1.5.9-2.6 2.3-2.8 1.4-.1 2.9-.1 4.4 0 1.4.1 2.3 1.2 2.3 2.8 0 1.6-1 2.6-2.5 2.8h-2.2Zm.2-3.5h-2.1c-.1 0-.4 0-.4.6 0 .5.1.6.6.7h3.7c.3 0 .5 0 .5-.7 0-.6-.3-.6-.4-.6h-2Zm13.8-1.1h-1.7c-1 0-1.7.6-1.8 1.7 0 1.2.7 1.8 1.8 1.8h3.6c1 0 1.6-.6 1.6-1.6 0-1.1-.5-1.7-1.6-1.8h-1.9Zm-.1 4.6h-1.6c-1.8 0-2.9-1.2-2.8-2.9 0-1.5 1.1-2.6 2.7-2.7H310.8c1.6.2 2.6 1.3 2.5 2.9 0 1.5-1.1 2.6-2.6 2.7h-2.1Zm-.9-3.6h-.5c-.8 0-.8.4-.8.7 0 .4 0 .7.7.7h3.4c.4 0 .6-.2.6-.6 0-.4 0-.7-.6-.7h-2.8Z" style="fill:#fff;stroke:#fff;stroke-miterlimit:10;stroke-width:4px"></path><path class="cls-5" d="M287.7 348.9V317h11.2c5.2 0 9 1.3 11.5 4s3.8 6.6 3.8 11.9-1.3 9.2-3.8 11.9c-2.5 2.7-6.4 4-11.5 4h-11.2Zm5.3-4.5h5.4c3.6 0 6.2-.9 7.9-2.8 1.7-1.8 2.5-4.8 2.5-8.8s-.8-6.9-2.5-8.7c-1.7-1.9-4.3-2.8-7.9-2.8H293v23ZM334.1 349.4c-3.2 0-5.8-.6-8.1-1.8-2.2-1.2-3.9-3-5-5.4-1.1-2.4-1.7-5.5-1.7-9.2 0-5.4 1.3-9.6 3.8-12.3 2.5-2.8 6.2-4.2 11-4.2s5.9.6 8.1 1.8c2.2 1.2 3.9 3 5 5.5 1.2 2.4 1.7 5.5 1.7 9.2 0 5.4-1.3 9.5-3.8 12.3-2.5 2.8-6.2 4.2-11.1 4.2Zm0-4.6c2.1 0 3.9-.4 5.3-1.2s2.4-2.1 3.1-3.9c.7-1.7 1-4 1-6.9s-.3-5.1-1-6.8c-.7-1.7-1.7-3-3.1-3.8-1.4-.8-3.1-1.2-5.3-1.2s-3.9.4-5.3 1.2c-1.4.8-2.4 2.1-3.1 3.9-.7 1.7-1 4-1 6.8s.3 5.1 1 6.8c.7 1.8 1.7 3 3.1 3.9 1.4.8 3.2 1.2 5.3 1.2ZM368.9 349.3c-5 0-8.8-1.3-11.3-4.1-2.6-2.7-3.8-6.8-3.8-12.4s1.3-9.5 3.8-12.3c2.5-2.8 6.3-4.1 11.4-4.1s3.4.2 5 .6c1.7.4 3.3 1 4.9 1.7v4.7c-1.6-.9-3.1-1.6-4.7-2s-3.1-.6-4.6-.6c-2.3 0-4.3.4-5.8 1.2-1.5.8-2.7 2.1-3.4 3.9-.7 1.8-1.1 4.1-1.1 7s.4 5.1 1.1 6.9c.8 1.8 1.9 3.1 3.5 3.9 1.5.8 3.5 1.2 5.9 1.2s2.9-.2 4.4-.6c1.5-.4 3.1-1.1 4.6-2v4.7c-1 .5-2 .9-3.1 1.2-1.1.4-2.2.6-3.4.8-1.1.2-2.3.3-3.4.3ZM397.3 334.8l-9.3 14.1h-6l12-17.5 3.3 3.4Zm13.3 14.1h-6.5L382 317h6.5l22.1 31.9ZM396 329.6l8.4-12.7h6L399 333.7l-3-4.1Z"></path><path class="cls-2" d="M423.8 286.9H274.7c-9.5 0-17.3 7.8-17.3 17.3v56.4c0 9.5 7.8 17.3 17.3 17.3h149.1c9.5 0 17.3-7.8 17.3-17.3v-56.4c0-9.5-7.8-17.3-17.3-17.3Zm10 73.7c0 5.5-4.5 10-10 10H274.7c-5.5 0-10-4.5-10-10v-56.4c0-5.5 4.5-10 10-10h149.1c5.5 0 10 4.5 10 10v56.4Z"></path><path class="cls-5" d="M113.4 337.4v11.4h-5.3v-31.9h12.6c3.6 0 6.4.8 8.4 2.5s3 4.2 3 7.6-1 5.9-3 7.7c-2 1.8-4.8 2.7-8.4 2.7h-7.4Zm0-4.5h6.7c1.4 0 2.5-.2 3.3-.5.9-.3 1.5-.7 2-1.3.5-.6.8-1.2 1-1.8.2-.7.3-1.4.3-2.1s0-1.5-.3-2.2c-.2-.7-.5-1.3-1-1.9-.5-.6-1.1-1-2-1.3-.9-.3-2-.5-3.3-.5h-6.7v11.5ZM138.5 348.9V317h11.2c5.2 0 9 1.3 11.5 4s3.8 6.6 3.8 11.9-1.3 9.2-3.8 11.9-6.4 4-11.5 4h-11.2Zm5.3-4.5h5.4c3.6 0 6.2-.9 7.9-2.8 1.7-1.8 2.5-4.8 2.5-8.8s-.8-6.9-2.5-8.7c-1.7-1.9-4.3-2.8-7.9-2.8h-5.4v23ZM171.3 348.9V317h20.5v4.4h-15.2v9.5h13.3v4.5h-13.3v13.4h-5.3Z"></path></svg>